<?xml version="1.0" encoding="UTF-8" standalone="no"?>
<!DOCTYPE svg PUBLIC "-//W3C//DTD SVG 1.1//EN" "http://www.w3.org/Graphics/SVG/1.1/DTD/svg11.dtd">
<svg xmlns="http://www.w3.org/2000/svg" version="1.1" viewBox="0.00 0.00 150.00 150.00">
<g stroke-width="2.00" fill="none" stroke-linecap="butt">
<path stroke="#168962" vector-effect="non-scaling-stroke" d="
  M 66.79 48.96
  L 66.76 40.01
  A 1.15 1.13 -18.3 0 1 67.25 39.06
  L 68.32 38.33
  A 2.14 2.14 0.0 0 0 68.73 35.17
  C 65.42 31.32 61.31 36.15 64.88 38.91
  Q 65.29 39.23 65.29 39.74
  L 65.26 48.70
  Q 65.26 49.16 64.80 49.15
  L 50.54 49.08
  Q 49.99 49.08 49.99 48.53
  L 49.99 40.49
  A 0.84 0.83 -14.7 0 1 50.42 39.76
  C 53.37 38.10 51.97 34.73 49.00 34.38
  Q 48.51 34.32 48.11 34.61
  C 45.87 36.18 45.73 38.48 48.05 40.06
  Q 48.40 40.30 48.40 40.73
  L 48.37 49.69
  A 1.07 1.06 89.7 0 0 49.44 50.76
  Q 57.28 50.72 65.16 50.76
  Q 65.27 50.76 65.32 50.82
  Q 65.39 50.91 65.40 51.10
  Q 65.41 51.29 65.22 51.32
  Q 61.09 52.02 57.99 54.84
  Q 57.57 55.23 57.00 55.24
  L 53.79 55.28
  Q 53.31 55.29 53.04 54.90
  C 51.76 53.05 49.86 52.54 48.25 54.31
  C 45.69 57.12 50.34 61.10 52.93 57.30
  Q 53.24 56.84 53.80 56.83
  L 56.78 56.78
  Q 57.05 56.78 56.98 57.03
  L 56.15 60.42
  Q 56.09 60.69 55.81 60.69
  L 48.85 60.68
  Q 48.33 60.68 47.92 60.36
  L 46.45 59.19
  A 2.13 2.13 0.0 0 0 43.96 59.09
  C 39.54 62.01 44.92 66.81 47.81 62.84
  Q 48.07 62.49 48.51 62.49
  L 56.00 62.49
  Q 56.35 62.49 56.50 62.81
  L 57.95 65.99
  A 0.21 0.21 0.0 0 1 57.76 66.28
  L 53.78 66.29
  A 0.94 0.94 0.0 0 1 53.02 65.93
  Q 50.98 63.36 48.32 65.41
  A 2.40 2.40 0.0 0 0 48.37 69.25
  Q 49.87 70.35 51.76 69.87
  Q 52.38 69.71 52.63 69.13
  L 52.99 68.27
  Q 53.18 67.84 53.64 67.81
  Q 55.96 67.67 58.30 67.79
  C 60.66 67.91 62.49 69.33 65.08 69.57
  Q 65.50 69.61 65.50 70.03
  L 65.52 79.23
  Q 65.52 79.68 65.07 79.68
  Q 61.42 79.70 57.76 79.67
  C 55.20 79.66 54.70 75.35 51.27 78.67
  A 2.26 2.26 0.0 0 0 51.26 81.90
  L 52.46 83.08
  Q 52.87 83.49 53.43 83.36
  Q 55.10 82.99 56.03 81.62
  A 0.98 0.98 0.0 0 1 56.84 81.19
  L 66.03 81.21
  Q 66.99 81.22 66.99 80.26
  L 66.98 70.02
  A 0.50 0.50 0.0 0 1 67.48 69.52
  L 71.23 69.49
  Q 71.71 69.49 71.71 69.98
  L 71.65 75.47
  A 0.82 0.81 73.5 0 1 71.29 76.15
  C 66.87 79.14 71.97 84.41 74.49 80.49
  Q 75.93 78.25 73.60 76.36
  Q 73.20 76.03 73.20 75.52
  L 73.17 70.04
  A 0.54 0.53 0.0 0 1 73.71 69.51
  L 76.56 69.50
  Q 77.12 69.50 77.12 70.06
  L 77.03 80.97
  Q 77.03 81.48 76.60 81.76
  C 74.73 82.96 74.22 85.64 76.48 86.68
  C 79.87 88.25 82.53 83.77 79.01 81.77
  A 0.87 0.86 15.0 0 1 78.57 81.02
  L 78.57 69.73
  Q 78.57 69.52 78.77 69.52
  L 82.21 69.49
  A 0.21 0.21 0.0 0 1 82.42 69.71
  L 82.39 75.34
  A 0.93 0.92 -19.2 0 1 82.03 76.07
  C 77.02 79.91 84.48 84.73 85.75 79.67
  C 86.11 78.25 85.24 77.07 84.27 76.14
  Q 83.98 75.87 83.98 75.48
  L 83.86 69.99
  A 0.57 0.57 0.0 0 1 84.54 69.42
  Q 88.95 70.32 92.15 67.27
  Q 92.53 66.91 93.05 66.91
  L 100.97 66.94
  Q 101.50 66.94 101.50 67.47
  L 101.51 75.27
  Q 101.51 75.76 101.19 76.13
  Q 100.08 77.41 100.04 78.00
  Q 99.81 81.42 103.22 81.12
  A 2.54 2.51 -70.7 0 0 104.80 80.35
  C 105.96 79.12 105.81 76.99 104.10 76.17
  Q 103.74 75.99 103.48 75.71
  Q 103.16 75.36 103.17 74.70
  Q 103.23 70.43 103.21 66.41
  A 1.36 1.36 0.0 0 0 101.85 65.06
  L 94.25 65.05
  Q 93.44 65.05 93.48 64.24
  L 93.63 61.24
  Q 93.67 60.64 94.27 60.63
  L 96.01 60.60
  Q 96.50 60.59 96.84 60.96
  C 102.09 66.77 104.84 55.65 98.75 57.22
  Q 98.28 57.34 97.96 57.71
  Q 96.15 59.81 93.20 58.89
  Q 92.62 58.71 92.35 58.17
  Q 91.52 56.51 89.86 55.70
  A 0.28 0.28 0.0 0 1 89.98 55.17
  L 101.94 55.24
  Q 102.23 55.24 102.36 55.49
  L 102.60 55.95
  Q 102.80 56.33 103.15 56.57
  C 107.45 59.43 110.00 52.43 105.49 51.69
  Q 103.67 51.40 102.35 53.19
  A 0.77 0.75 -71.4 0 1 101.74 53.50
  L 87.05 53.51
  Q 86.78 53.51 86.67 53.26
  L 85.19 50.11
  A 0.16 0.15 77.7 0 1 85.33 49.89
  L 95.85 49.93
  Q 96.27 49.93 96.61 50.19
  C 98.31 51.51 99.73 53.05 101.62 50.63
  C 103.77 47.87 100.07 44.10 97.05 47.62
  Q 96.70 48.04 96.15 48.04
  L 84.55 48.11
  A 0.34 0.34 0.0 0 1 84.21 47.77
  L 84.18 35.34
  Q 84.18 34.73 84.78 34.73
  L 92.58 34.74
  A 1.37 1.34 70.8 0 1 93.65 35.27
  Q 95.41 37.53 97.84 35.70
  A 2.53 2.52 54.7 0 0 98.42 32.28
  C 96.94 30.07 94.72 30.83 93.26 32.64
  A 1.00 0.98 -70.2 0 1 92.49 33.01
  L 83.32 33.01
  A 0.93 0.92 -0.0 0 0 82.39 33.93
  L 82.36 46.01
  Q 82.36 46.39 82.02 46.22
  L 78.16 44.36
  Q 77.96 44.26 77.95 44.03
  L 77.92 39.81
  Q 77.92 39.34 78.32 39.13
  Q 80.30 38.08 79.91 35.96
  C 78.97 30.82 70.81 35.55 75.81 38.89
  Q 76.22 39.17 76.23 39.65
  L 76.32 44.03
  Q 76.33 44.24 76.12 44.28
  L 72.76 44.93
  Q 72.56 44.96 72.57 44.76
  L 72.59 34.75
  Q 72.59 34.32 72.93 34.05
  C 76.28 31.32 73.20 26.88 70.11 29.08
  C 67.90 30.65 69.13 32.52 70.53 34.03
  A 1.02 1.00 -66.8 0 1 70.80 34.72
  L 70.81 45.09
  Q 70.81 45.44 70.55 45.68
  L 66.95 49.03
  Q 66.79 49.18 66.79 48.96"
/>
<path stroke="#909298" vector-effect="non-scaling-stroke" d="
  M 84.7897 122.4799
  A 11.38 10.78 89.8 0 0 95.5299 111.0624
  A 11.38 10.78 89.8 0 0 84.7103 99.7201
  A 11.38 10.78 89.8 0 0 73.9701 111.1376
  A 11.38 10.78 89.8 0 0 84.7897 122.4799"
/>
<path stroke="#909298" vector-effect="non-scaling-stroke" d="
  M 17.96 107.26
  A 0.22 0.22 0.0 0 1 18.36 107.14
  Q 22.84 113.93 27.45 120.36
  C 28.84 122.29 30.39 122.37 32.52 121.80
  Q 32.96 121.69 32.96 121.23
  L 32.95 100.72
  Q 32.95 100.23 32.47 100.24
  L 29.25 100.27
  A 0.47 0.47 0.0 0 0 28.78 100.75
  L 28.91 114.46
  Q 28.92 115.63 28.26 114.67
  L 18.55 100.62
  Q 18.30 100.26 17.86 100.26
  L 14.53 100.25
  A 0.72 0.71 -89.6 0 0 13.81 100.97
  L 13.79 121.50
  Q 13.79 121.96 14.25 121.96
  L 17.25 121.94
  Q 17.95 121.94 17.95 121.24
  L 17.96 107.26"
/>
<path stroke="#909298" vector-effect="non-scaling-stroke" d="
  M 41.87 109.19
  A 0.37 0.37 0.0 0 1 41.50 108.82
  L 41.49 104.11
  A 0.37 0.37 0.0 0 1 41.86 103.74
  L 51.34 103.75
  A 0.37 0.37 0.0 0 0 51.71 103.36
  L 51.54 100.60
  A 0.37 0.37 0.0 0 0 51.17 100.25
  L 37.62 100.25
  A 0.37 0.37 0.0 0 0 37.25 100.62
  L 37.25 121.59
  A 0.37 0.37 0.0 0 0 37.62 121.96
  L 51.60 121.95
  A 0.37 0.37 0.0 0 0 51.97 121.58
  L 52.01 118.87
  A 0.37 0.37 0.0 0 0 51.64 118.50
  L 41.87 118.50
  A 0.37 0.37 0.0 0 1 41.50 118.13
  L 41.50 112.98
  A 0.37 0.37 0.0 0 1 41.87 112.61
  L 49.58 112.64
  A 0.37 0.37 0.0 0 0 49.95 112.27
  L 49.97 109.55
  A 0.37 0.37 0.0 0 0 49.60 109.18
  L 41.87 109.19"
/>
<path stroke="#909298" vector-effect="non-scaling-stroke" d="
  M 57.81 121.94
  A 0.34 0.34 0.0 0 0 58.09 121.79
  L 63.31 114.19
  A 0.34 0.34 0.0 0 1 63.87 114.19
  L 68.99 121.80
  A 0.34 0.34 0.0 0 0 69.27 121.95
  L 73.26 121.94
  A 0.34 0.34 0.0 0 0 73.53 121.40
  L 66.11 111.09
  A 0.34 0.34 0.0 0 1 66.11 110.69
  L 73.25 100.80
  A 0.34 0.34 0.0 0 0 72.98 100.26
  L 68.93 100.25
  A 0.34 0.34 0.0 0 0 68.65 100.40
  L 63.80 107.48
  A 0.34 0.34 0.0 0 1 63.23 107.48
  L 58.59 100.39
  A 0.34 0.34 0.0 0 0 58.30 100.23
  L 54.26 100.26
  A 0.34 0.34 0.0 0 0 53.98 100.80
  L 60.95 110.76
  A 0.34 0.34 0.0 0 1 60.95 111.16
  L 53.55 121.43
  A 0.34 0.34 0.0 0 0 53.83 121.97
  L 57.81 121.94"
/>
<path stroke="#909298" vector-effect="non-scaling-stroke" d="
  M 106.94 115.29
  A 0.35 0.35 0.0 0 1 106.28 115.30
  L 100.72 100.46
  A 0.35 0.35 0.0 0 0 100.38 100.23
  L 96.78 100.27
  A 0.35 0.35 0.0 0 0 96.46 100.75
  L 104.59 121.74
  A 0.35 0.35 0.0 0 0 104.92 121.96
  L 108.16 121.96
  A 0.35 0.35 0.0 0 0 108.49 121.74
  L 116.75 100.75
  A 0.35 0.35 0.0 0 0 116.43 100.28
  L 112.71 100.24
  A 0.35 0.35 0.0 0 0 112.38 100.47
  L 106.94 115.29"
/>
<path stroke="#909298" vector-effect="non-scaling-stroke" d="
  M 121.52 116.60
  A 0.49 0.49 0.0 0 1 121.98 116.29
  L 129.36 116.36
  A 0.49 0.49 0.0 0 1 129.82 116.69
  L 131.55 121.63
  A 0.49 0.49 0.0 0 0 132.01 121.96
  L 135.40 121.97
  A 0.49 0.49 0.0 0 0 135.85 121.30
  L 127.64 100.56
  A 0.49 0.49 0.0 0 0 127.19 100.25
  L 123.96 100.25
  A 0.49 0.49 0.0 0 0 123.51 100.56
  L 115.33 121.22
  A 0.49 0.49 0.0 0 0 115.77 121.89
  L 119.05 121.99
  A 0.49 0.49 0.0 0 0 119.52 121.68
  L 121.52 116.60"
/>
<path stroke="#118b62" vector-effect="non-scaling-stroke" d="
  M 73.07 31.40
  A 1.46 1.46 0.0 0 0 71.61 29.94
  A 1.46 1.46 0.0 0 0 70.15 31.40
  A 1.46 1.46 0.0 0 0 71.61 32.86
  A 1.46 1.46 0.0 0 0 73.07 31.40"
/>
<path stroke="#118b62" vector-effect="non-scaling-stroke" d="
  M 97.31 33.61
  A 1.37 1.37 0.0 0 0 95.94 32.24
  A 1.37 1.37 0.0 0 0 94.57 33.61
  A 1.37 1.37 0.0 0 0 95.94 34.98
  A 1.37 1.37 0.0 0 0 97.31 33.61"
/>
<path stroke="#118b62" vector-effect="non-scaling-stroke" d="
  M 67.79 36.49
  A 1.42 1.42 0.0 0 0 66.37 35.07
  A 1.42 1.42 0.0 0 0 64.95 36.49
  A 1.42 1.42 0.0 0 0 66.37 37.91
  A 1.42 1.42 0.0 0 0 67.79 36.49"
/>
<path stroke="#118b62" vector-effect="non-scaling-stroke" d="
  M 78.07 35.24
  L 76.27 35.29
  A 0.50 0.50 0.0 0 0 75.79 35.80
  L 75.81 36.54
  A 1.48 1.15 88.4 0 0 77.00 37.99
  L 77.50 37.97
  A 1.48 1.15 88.4 0 0 78.61 36.46
  L 78.59 35.72
  A 0.50 0.50 0.0 0 0 78.07 35.24"
/>
<path stroke="#118b62" vector-effect="non-scaling-stroke" d="
  M 50.68 37.26
  A 1.48 1.48 0.0 0 0 49.20 35.78
  A 1.48 1.48 0.0 0 0 47.72 37.26
  A 1.48 1.48 0.0 0 0 49.20 38.74
  A 1.48 1.48 0.0 0 0 50.68 37.26"
/>
<path stroke="#168962" vector-effect="non-scaling-stroke" d="
  M 85.64 55.53
  Q 84.81 52.67 84.17 51.29
  C 80.36 43.02 70.38 45.15 66.78 52.28
  A 1.06 1.05 7.3 0 1 66.03 52.85
  C 61.09 53.78 57.41 55.37 57.99 61.53
  Q 58.35 65.40 61.61 67.07
  Q 63.48 68.03 67.58 68.02
  Q 76.91 67.99 86.26 68.01
  C 89.90 68.01 91.72 67.03 91.91 63.25
  Q 92.24 56.68 86.30 56.08
  Q 85.78 56.03 85.64 55.53"
/>
<path stroke="#118b62" vector-effect="non-scaling-stroke" d="
  M 100.8070 48.7267
  A 1.03 1.03 0.0 0 0 99.9591 47.5423
  L 99.3277 47.4377
  A 1.03 1.03 0.0 0 0 98.1433 48.2857
  L 97.9930 49.1933
  A 1.03 1.03 0.0 0 0 98.8409 50.3777
  L 99.4723 50.4823
  A 1.03 1.03 0.0 0 0 100.6567 49.6343
  L 100.8070 48.7267"
/>
<path stroke="#118b62" vector-effect="non-scaling-stroke" d="
  M 106.3115 53.9772
  A 0.69 0.69 0.0 0 0 105.6460 53.2635
  L 104.3468 53.2181
  A 0.69 0.69 0.0 0 0 103.6332 53.8836
  L 103.5885 55.1628
  A 0.69 0.69 0.0 0 0 104.2540 55.8765
  L 105.5532 55.9219
  A 0.69 0.69 0.0 0 0 106.2668 55.2564
  L 106.3115 53.9772"
/>
<path stroke="#118b62" vector-effect="non-scaling-stroke" d="
  M 50.30 57.70
  L 51.90 56.59
  A 0.45 0.45 0.0 0 0 52.01 55.97
  L 51.90 55.80
  A 2.09 1.29 55.3 0 0 49.65 54.82
  L 49.43 54.97
  A 2.09 1.29 55.3 0 0 49.56 57.42
  L 49.68 57.58
  A 0.45 0.45 0.0 0 0 50.30 57.70"
/>
<path stroke="#118b62" vector-effect="non-scaling-stroke" d="
  M 98.37 60.63
  L 100.00 61.17
  A 0.44 0.44 0.0 0 0 100.56 60.89
  L 100.60 60.77
  A 2.17 1.21 -71.6 0 0 100.14 58.33
  L 99.97 58.27
  A 2.17 1.21 -71.6 0 0 98.13 59.95
  L 98.09 60.07
  A 0.44 0.44 0.0 0 0 98.37 60.63"
/>
<path stroke="#118b62" vector-effect="non-scaling-stroke" d="
  M 46.5321 61.2354
  A 0.88 0.88 0.0 0 0 45.7321 60.2820
  L 44.6562 60.1879
  A 0.88 0.88 0.0 0 0 43.7029 60.9879
  L 43.6279 61.8446
  A 0.88 0.88 0.0 0 0 44.4279 62.7980
  L 45.5038 62.8921
  A 0.88 0.88 0.0 0 0 46.4571 62.0921
  L 46.5321 61.2354"
/>
<path stroke="#118b62" vector-effect="non-scaling-stroke" d="
  M 50.5282 68.8875
  A 1.58 1.39 86.8 0 0 51.8278 67.2324
  A 1.58 1.39 86.8 0 0 50.3518 65.7325
  A 1.58 1.39 86.8 0 0 49.0522 67.3876
  A 1.58 1.39 86.8 0 0 50.5282 68.8875"
/>
<path stroke="#118b62" vector-effect="non-scaling-stroke" d="
  M 104.12 78.57
  A 1.39 1.39 0.0 0 0 102.73 77.18
  A 1.39 1.39 0.0 0 0 101.34 78.57
  A 1.39 1.39 0.0 0 0 102.73 79.96
  A 1.39 1.39 0.0 0 0 104.12 78.57"
/>
<path stroke="#118b62" vector-effect="non-scaling-stroke" d="
  M 71.72 80.43
  L 73.36 80.21
  A 0.49 0.49 0.0 0 0 73.78 79.65
  L 73.63 78.52
  A 1.33 1.22 82.3 0 0 72.24 77.37
  L 72.04 77.40
  A 1.33 1.22 82.3 0 0 71.01 78.88
  L 71.16 80.01
  A 0.49 0.49 0.0 0 0 71.72 80.43"
/>
<path stroke="#118b62" vector-effect="non-scaling-stroke" d="
  M 84.60 78.99
  A 1.53 1.53 0.0 0 0 83.07 77.46
  A 1.53 1.53 0.0 0 0 81.54 78.99
  A 1.53 1.53 0.0 0 0 83.07 80.52
  A 1.53 1.53 0.0 0 0 84.60 78.99"
/>
<path stroke="#118b62" vector-effect="non-scaling-stroke" d="
  M 54.94 80.40
  A 1.42 1.42 0.0 0 0 53.52 78.98
  A 1.42 1.42 0.0 0 0 52.10 80.40
  A 1.42 1.42 0.0 0 0 53.52 81.82
  A 1.42 1.42 0.0 0 0 54.94 80.40"
/>
<path stroke="#118b62" vector-effect="non-scaling-stroke" d="
  M 79.11 84.30
  A 1.37 1.37 0.0 0 0 77.74 82.93
  A 1.37 1.37 0.0 0 0 76.37 84.30
  A 1.37 1.37 0.0 0 0 77.74 85.67
  A 1.37 1.37 0.0 0 0 79.11 84.30"
/>
<path stroke="#909298" vector-effect="non-scaling-stroke" d="
  M 84.6447 119.0690
  A 7.98 6.55 90.9 0 0 91.3192 111.1929
  A 7.98 6.55 90.9 0 0 84.8953 103.1110
  A 7.98 6.55 90.9 0 0 78.2208 110.9871
  A 7.98 6.55 90.9 0 0 84.6447 119.0690"
/>
<path stroke="#909298" vector-effect="non-scaling-stroke" d="
  M 122.85 112.56
  A 0.34 0.34 0.0 0 0 123.17 113.01
  L 127.91 112.98
  A 0.34 0.34 0.0 0 0 128.22 112.52
  L 125.81 106.10
  A 0.34 0.34 0.0 0 0 125.17 106.11
  L 122.85 112.56"
/>
</g>
<path fill="#202430" d="
  M 0.00 0.00
  L 150.00 0.00
  L 150.00 150.00
  L 0.00 150.00
  L 0.00 0.00
  Z
  M 66.79 48.96
  L 66.76 40.01
  A 1.15 1.13 -18.3 0 1 67.25 39.06
  L 68.32 38.33
  A 2.14 2.14 0.0 0 0 68.73 35.17
  C 65.42 31.32 61.31 36.15 64.88 38.91
  Q 65.29 39.23 65.29 39.74
  L 65.26 48.70
  Q 65.26 49.16 64.80 49.15
  L 50.54 49.08
  Q 49.99 49.08 49.99 48.53
  L 49.99 40.49
  A 0.84 0.83 -14.7 0 1 50.42 39.76
  C 53.37 38.10 51.97 34.73 49.00 34.38
  Q 48.51 34.32 48.11 34.61
  C 45.87 36.18 45.73 38.48 48.05 40.06
  Q 48.40 40.30 48.40 40.73
  L 48.37 49.69
  A 1.07 1.06 89.7 0 0 49.44 50.76
  Q 57.28 50.72 65.16 50.76
  Q 65.27 50.76 65.32 50.82
  Q 65.39 50.91 65.40 51.10
  Q 65.41 51.29 65.22 51.32
  Q 61.09 52.02 57.99 54.84
  Q 57.57 55.23 57.00 55.24
  L 53.79 55.28
  Q 53.31 55.29 53.04 54.90
  C 51.76 53.05 49.86 52.54 48.25 54.31
  C 45.69 57.12 50.34 61.10 52.93 57.30
  Q 53.24 56.84 53.80 56.83
  L 56.78 56.78
  Q 57.05 56.78 56.98 57.03
  L 56.15 60.42
  Q 56.09 60.69 55.81 60.69
  L 48.85 60.68
  Q 48.33 60.68 47.92 60.36
  L 46.45 59.19
  A 2.13 2.13 0.0 0 0 43.96 59.09
  C 39.54 62.01 44.92 66.81 47.81 62.84
  Q 48.07 62.49 48.51 62.49
  L 56.00 62.49
  Q 56.35 62.49 56.50 62.81
  L 57.95 65.99
  A 0.21 0.21 0.0 0 1 57.76 66.28
  L 53.78 66.29
  A 0.94 0.94 0.0 0 1 53.02 65.93
  Q 50.98 63.36 48.32 65.41
  A 2.40 2.40 0.0 0 0 48.37 69.25
  Q 49.87 70.35 51.76 69.87
  Q 52.38 69.71 52.63 69.13
  L 52.99 68.27
  Q 53.18 67.84 53.64 67.81
  Q 55.96 67.67 58.30 67.79
  C 60.66 67.91 62.49 69.33 65.08 69.57
  Q 65.50 69.61 65.50 70.03
  L 65.52 79.23
  Q 65.52 79.68 65.07 79.68
  Q 61.42 79.70 57.76 79.67
  C 55.20 79.66 54.70 75.35 51.27 78.67
  A 2.26 2.26 0.0 0 0 51.26 81.90
  L 52.46 83.08
  Q 52.87 83.49 53.43 83.36
  Q 55.10 82.99 56.03 81.62
  A 0.98 0.98 0.0 0 1 56.84 81.19
  L 66.03 81.21
  Q 66.99 81.22 66.99 80.26
  L 66.98 70.02
  A 0.50 0.50 0.0 0 1 67.48 69.52
  L 71.23 69.49
  Q 71.71 69.49 71.71 69.98
  L 71.65 75.47
  A 0.82 0.81 73.5 0 1 71.29 76.15
  C 66.87 79.14 71.97 84.41 74.49 80.49
  Q 75.93 78.25 73.60 76.36
  Q 73.20 76.03 73.20 75.52
  L 73.17 70.04
  A 0.54 0.53 0.0 0 1 73.71 69.51
  L 76.56 69.50
  Q 77.12 69.50 77.12 70.06
  L 77.03 80.97
  Q 77.03 81.48 76.60 81.76
  C 74.73 82.96 74.22 85.64 76.48 86.68
  C 79.87 88.25 82.53 83.77 79.01 81.77
  A 0.87 0.86 15.0 0 1 78.57 81.02
  L 78.57 69.73
  Q 78.57 69.52 78.77 69.52
  L 82.21 69.49
  A 0.21 0.21 0.0 0 1 82.42 69.71
  L 82.39 75.34
  A 0.93 0.92 -19.2 0 1 82.03 76.07
  C 77.02 79.91 84.48 84.73 85.75 79.67
  C 86.11 78.25 85.24 77.07 84.27 76.14
  Q 83.98 75.87 83.98 75.48
  L 83.86 69.99
  A 0.57 0.57 0.0 0 1 84.54 69.42
  Q 88.95 70.32 92.15 67.27
  Q 92.53 66.91 93.05 66.91
  L 100.97 66.94
  Q 101.50 66.94 101.50 67.47
  L 101.51 75.27
  Q 101.51 75.76 101.19 76.13
  Q 100.08 77.41 100.04 78.00
  Q 99.81 81.42 103.22 81.12
  A 2.54 2.51 -70.7 0 0 104.80 80.35
  C 105.96 79.12 105.81 76.99 104.10 76.17
  Q 103.74 75.99 103.48 75.71
  Q 103.16 75.36 103.17 74.70
  Q 103.23 70.43 103.21 66.41
  A 1.36 1.36 0.0 0 0 101.85 65.06
  L 94.25 65.05
  Q 93.44 65.05 93.48 64.24
  L 93.63 61.24
  Q 93.67 60.64 94.27 60.63
  L 96.01 60.60
  Q 96.50 60.59 96.84 60.96
  C 102.09 66.77 104.84 55.65 98.75 57.22
  Q 98.28 57.34 97.96 57.71
  Q 96.15 59.81 93.20 58.89
  Q 92.62 58.71 92.35 58.17
  Q 91.52 56.51 89.86 55.70
  A 0.28 0.28 0.0 0 1 89.98 55.17
  L 101.94 55.24
  Q 102.23 55.24 102.36 55.49
  L 102.60 55.95
  Q 102.80 56.33 103.15 56.57
  C 107.45 59.43 110.00 52.43 105.49 51.69
  Q 103.67 51.40 102.35 53.19
  A 0.77 0.75 -71.4 0 1 101.74 53.50
  L 87.05 53.51
  Q 86.78 53.51 86.67 53.26
  L 85.19 50.11
  A 0.16 0.15 77.7 0 1 85.33 49.89
  L 95.85 49.93
  Q 96.27 49.93 96.61 50.19
  C 98.31 51.51 99.73 53.05 101.62 50.63
  C 103.77 47.87 100.07 44.10 97.05 47.62
  Q 96.70 48.04 96.15 48.04
  L 84.55 48.11
  A 0.34 0.34 0.0 0 1 84.21 47.77
  L 84.18 35.34
  Q 84.18 34.73 84.78 34.73
  L 92.58 34.74
  A 1.37 1.34 70.8 0 1 93.65 35.27
  Q 95.41 37.53 97.84 35.70
  A 2.53 2.52 54.7 0 0 98.42 32.28
  C 96.94 30.07 94.72 30.83 93.26 32.64
  A 1.00 0.98 -70.2 0 1 92.49 33.01
  L 83.32 33.01
  A 0.93 0.92 -0.0 0 0 82.39 33.93
  L 82.36 46.01
  Q 82.36 46.39 82.02 46.22
  L 78.16 44.36
  Q 77.96 44.26 77.95 44.03
  L 77.92 39.81
  Q 77.92 39.34 78.32 39.13
  Q 80.30 38.08 79.91 35.96
  C 78.97 30.82 70.81 35.55 75.81 38.89
  Q 76.22 39.17 76.23 39.65
  L 76.32 44.03
  Q 76.33 44.24 76.12 44.28
  L 72.76 44.93
  Q 72.56 44.96 72.57 44.76
  L 72.59 34.75
  Q 72.59 34.32 72.93 34.05
  C 76.28 31.32 73.20 26.88 70.11 29.08
  C 67.90 30.65 69.13 32.52 70.53 34.03
  A 1.02 1.00 -66.8 0 1 70.80 34.72
  L 70.81 45.09
  Q 70.81 45.44 70.55 45.68
  L 66.95 49.03
  Q 66.79 49.18 66.79 48.96
  Z
  M 84.7897 122.4799
  A 11.38 10.78 89.8 0 0 95.5299 111.0624
  A 11.38 10.78 89.8 0 0 84.7103 99.7201
  A 11.38 10.78 89.8 0 0 73.9701 111.1376
  A 11.38 10.78 89.8 0 0 84.7897 122.4799
  Z
  M 17.96 107.26
  A 0.22 0.22 0.0 0 1 18.36 107.14
  Q 22.84 113.93 27.45 120.36
  C 28.84 122.29 30.39 122.37 32.52 121.80
  Q 32.96 121.69 32.96 121.23
  L 32.95 100.72
  Q 32.95 100.23 32.47 100.24
  L 29.25 100.27
  A 0.47 0.47 0.0 0 0 28.78 100.75
  L 28.91 114.46
  Q 28.92 115.63 28.26 114.67
  L 18.55 100.62
  Q 18.30 100.26 17.86 100.26
  L 14.53 100.25
  A 0.72 0.71 -89.6 0 0 13.81 100.97
  L 13.79 121.50
  Q 13.79 121.96 14.25 121.96
  L 17.25 121.94
  Q 17.95 121.94 17.95 121.24
  L 17.96 107.26
  Z
  M 41.87 109.19
  A 0.37 0.37 0.0 0 1 41.50 108.82
  L 41.49 104.11
  A 0.37 0.37 0.0 0 1 41.86 103.74
  L 51.34 103.75
  A 0.37 0.37 0.0 0 0 51.71 103.36
  L 51.54 100.60
  A 0.37 0.37 0.0 0 0 51.17 100.25
  L 37.62 100.25
  A 0.37 0.37 0.0 0 0 37.25 100.62
  L 37.25 121.59
  A 0.37 0.37 0.0 0 0 37.62 121.96
  L 51.60 121.95
  A 0.37 0.37 0.0 0 0 51.97 121.58
  L 52.01 118.87
  A 0.37 0.37 0.0 0 0 51.64 118.50
  L 41.87 118.50
  A 0.37 0.37 0.0 0 1 41.50 118.13
  L 41.50 112.98
  A 0.37 0.37 0.0 0 1 41.87 112.61
  L 49.58 112.64
  A 0.37 0.37 0.0 0 0 49.95 112.27
  L 49.97 109.55
  A 0.37 0.37 0.0 0 0 49.60 109.18
  L 41.87 109.19
  Z
  M 57.81 121.94
  A 0.34 0.34 0.0 0 0 58.09 121.79
  L 63.31 114.19
  A 0.34 0.34 0.0 0 1 63.87 114.19
  L 68.99 121.80
  A 0.34 0.34 0.0 0 0 69.27 121.95
  L 73.26 121.94
  A 0.34 0.34 0.0 0 0 73.53 121.40
  L 66.11 111.09
  A 0.34 0.34 0.0 0 1 66.11 110.69
  L 73.25 100.80
  A 0.34 0.34 0.0 0 0 72.98 100.26
  L 68.93 100.25
  A 0.34 0.34 0.0 0 0 68.65 100.40
  L 63.80 107.48
  A 0.34 0.34 0.0 0 1 63.23 107.48
  L 58.59 100.39
  A 0.34 0.34 0.0 0 0 58.30 100.23
  L 54.26 100.26
  A 0.34 0.34 0.0 0 0 53.98 100.80
  L 60.95 110.76
  A 0.34 0.34 0.0 0 1 60.95 111.16
  L 53.55 121.43
  A 0.34 0.34 0.0 0 0 53.83 121.97
  L 57.81 121.94
  Z
  M 106.94 115.29
  A 0.35 0.35 0.0 0 1 106.28 115.30
  L 100.72 100.46
  A 0.35 0.35 0.0 0 0 100.38 100.23
  L 96.78 100.27
  A 0.35 0.35 0.0 0 0 96.46 100.75
  L 104.59 121.74
  A 0.35 0.35 0.0 0 0 104.92 121.96
  L 108.16 121.96
  A 0.35 0.35 0.0 0 0 108.49 121.74
  L 116.75 100.75
  A 0.35 0.35 0.0 0 0 116.43 100.28
  L 112.71 100.24
  A 0.35 0.35 0.0 0 0 112.38 100.47
  L 106.94 115.29
  Z
  M 121.52 116.60
  A 0.49 0.49 0.0 0 1 121.98 116.29
  L 129.36 116.36
  A 0.49 0.49 0.0 0 1 129.82 116.69
  L 131.55 121.63
  A 0.49 0.49 0.0 0 0 132.01 121.96
  L 135.40 121.97
  A 0.49 0.49 0.0 0 0 135.85 121.30
  L 127.64 100.56
  A 0.49 0.49 0.0 0 0 127.19 100.25
  L 123.96 100.25
  A 0.49 0.49 0.0 0 0 123.51 100.56
  L 115.33 121.22
  A 0.49 0.49 0.0 0 0 115.77 121.89
  L 119.05 121.99
  A 0.49 0.49 0.0 0 0 119.52 121.68
  L 121.52 116.60
  Z"
/>
<path fill="#0bed93" d="
  M 66.79 48.96
  Q 66.79 49.18 66.95 49.03
  L 70.55 45.68
  Q 70.81 45.44 70.81 45.09
  L 70.80 34.72
  A 1.02 1.00 -66.8 0 0 70.53 34.03
  C 69.13 32.52 67.90 30.65 70.11 29.08
  C 73.20 26.88 76.28 31.32 72.93 34.05
  Q 72.59 34.32 72.59 34.75
  L 72.57 44.76
  Q 72.56 44.96 72.76 44.93
  L 76.12 44.28
  Q 76.33 44.24 76.32 44.03
  L 76.23 39.65
  Q 76.22 39.17 75.81 38.89
  C 70.81 35.55 78.97 30.82 79.91 35.96
  Q 80.30 38.08 78.32 39.13
  Q 77.92 39.34 77.92 39.81
  L 77.95 44.03
  Q 77.96 44.26 78.16 44.36
  L 82.02 46.22
  Q 82.36 46.39 82.36 46.01
  L 82.39 33.93
  A 0.93 0.92 -0.0 0 1 83.32 33.01
  L 92.49 33.01
  A 1.00 0.98 -70.2 0 0 93.26 32.64
  C 94.72 30.83 96.94 30.07 98.42 32.28
  A 2.53 2.52 54.7 0 1 97.84 35.70
  Q 95.41 37.53 93.65 35.27
  A 1.37 1.34 70.8 0 0 92.58 34.74
  L 84.78 34.73
  Q 84.18 34.73 84.18 35.34
  L 84.21 47.77
  A 0.34 0.34 0.0 0 0 84.55 48.11
  L 96.15 48.04
  Q 96.70 48.04 97.05 47.62
  C 100.07 44.10 103.77 47.87 101.62 50.63
  C 99.73 53.05 98.31 51.51 96.61 50.19
  Q 96.27 49.93 95.85 49.93
  L 85.33 49.89
  A 0.16 0.15 77.7 0 0 85.19 50.11
  L 86.67 53.26
  Q 86.78 53.51 87.05 53.51
  L 101.74 53.50
  A 0.77 0.75 -71.4 0 0 102.35 53.19
  Q 103.67 51.40 105.49 51.69
  C 110.00 52.43 107.45 59.43 103.15 56.57
  Q 102.80 56.33 102.60 55.95
  L 102.36 55.49
  Q 102.23 55.24 101.94 55.24
  L 89.98 55.17
  A 0.28 0.28 0.0 0 0 89.86 55.70
  Q 91.52 56.51 92.35 58.17
  Q 92.62 58.71 93.20 58.89
  Q 96.15 59.81 97.96 57.71
  Q 98.28 57.34 98.75 57.22
  C 104.84 55.65 102.09 66.77 96.84 60.96
  Q 96.50 60.59 96.01 60.60
  L 94.27 60.63
  Q 93.67 60.64 93.63 61.24
  L 93.48 64.24
  Q 93.44 65.05 94.25 65.05
  L 101.85 65.06
  A 1.36 1.36 0.0 0 1 103.21 66.41
  Q 103.23 70.43 103.17 74.70
  Q 103.16 75.36 103.48 75.71
  Q 103.74 75.99 104.10 76.17
  C 105.81 76.99 105.96 79.12 104.80 80.35
  A 2.54 2.51 -70.7 0 1 103.22 81.12
  Q 99.81 81.42 100.04 78.00
  Q 100.08 77.41 101.19 76.13
  Q 101.51 75.76 101.51 75.27
  L 101.50 67.47
  Q 101.50 66.94 100.97 66.94
  L 93.05 66.91
  Q 92.53 66.91 92.15 67.27
  Q 88.95 70.32 84.54 69.42
  A 0.57 0.57 0.0 0 0 83.86 69.99
  L 83.98 75.48
  Q 83.98 75.87 84.27 76.14
  C 85.24 77.07 86.11 78.25 85.75 79.67
  C 84.48 84.73 77.02 79.91 82.03 76.07
  A 0.93 0.92 -19.2 0 0 82.39 75.34
  L 82.42 69.71
  A 0.21 0.21 0.0 0 0 82.21 69.49
  L 78.77 69.52
  Q 78.57 69.52 78.57 69.73
  L 78.57 81.02
  A 0.87 0.86 15.0 0 0 79.01 81.77
  C 82.53 83.77 79.87 88.25 76.48 86.68
  C 74.22 85.64 74.73 82.96 76.60 81.76
  Q 77.03 81.48 77.03 80.97
  L 77.12 70.06
  Q 77.12 69.50 76.56 69.50
  L 73.71 69.51
  A 0.54 0.53 0.0 0 0 73.17 70.04
  L 73.20 75.52
  Q 73.20 76.03 73.60 76.36
  Q 75.93 78.25 74.49 80.49
  C 71.97 84.41 66.87 79.14 71.29 76.15
  A 0.82 0.81 73.5 0 0 71.65 75.47
  L 71.71 69.98
  Q 71.71 69.49 71.23 69.49
  L 67.48 69.52
  A 0.50 0.50 0.0 0 0 66.98 70.02
  L 66.99 80.26
  Q 66.99 81.22 66.03 81.21
  L 56.84 81.19
  A 0.98 0.98 0.0 0 0 56.03 81.62
  Q 55.10 82.99 53.43 83.36
  Q 52.87 83.49 52.46 83.08
  L 51.26 81.90
  A 2.26 2.26 0.0 0 1 51.27 78.67
  C 54.70 75.35 55.20 79.66 57.76 79.67
  Q 61.42 79.70 65.07 79.68
  Q 65.52 79.68 65.52 79.23
  L 65.50 70.03
  Q 65.50 69.61 65.08 69.57
  C 62.49 69.33 60.66 67.91 58.30 67.79
  Q 55.96 67.67 53.64 67.81
  Q 53.18 67.84 52.99 68.27
  L 52.63 69.13
  Q 52.38 69.71 51.76 69.87
  Q 49.87 70.35 48.37 69.25
  A 2.40 2.40 0.0 0 1 48.32 65.41
  Q 50.98 63.36 53.02 65.93
  A 0.94 0.94 0.0 0 0 53.78 66.29
  L 57.76 66.28
  A 0.21 0.21 0.0 0 0 57.95 65.99
  L 56.50 62.81
  Q 56.35 62.49 56.00 62.49
  L 48.51 62.49
  Q 48.07 62.49 47.81 62.84
  C 44.92 66.81 39.54 62.01 43.96 59.09
  A 2.13 2.13 0.0 0 1 46.45 59.19
  L 47.92 60.36
  Q 48.33 60.68 48.85 60.68
  L 55.81 60.69
  Q 56.09 60.69 56.15 60.42
  L 56.98 57.03
  Q 57.05 56.78 56.78 56.78
  L 53.80 56.83
  Q 53.24 56.84 52.93 57.30
  C 50.34 61.10 45.69 57.12 48.25 54.31
  C 49.86 52.54 51.76 53.05 53.04 54.90
  Q 53.31 55.29 53.79 55.28
  L 57.00 55.24
  Q 57.57 55.23 57.99 54.84
  Q 61.09 52.02 65.22 51.32
  Q 65.41 51.29 65.40 51.10
  Q 65.39 50.91 65.32 50.82
  Q 65.27 50.76 65.16 50.76
  Q 57.28 50.72 49.44 50.76
  A 1.07 1.06 89.7 0 1 48.37 49.69
  L 48.40 40.73
  Q 48.40 40.30 48.05 40.06
  C 45.73 38.48 45.87 36.18 48.11 34.61
  Q 48.51 34.32 49.00 34.38
  C 51.97 34.73 53.37 38.10 50.42 39.76
  A 0.84 0.83 -14.7 0 0 49.99 40.49
  L 49.99 48.53
  Q 49.99 49.08 50.54 49.08
  L 64.80 49.15
  Q 65.26 49.16 65.26 48.70
  L 65.29 39.74
  Q 65.29 39.23 64.88 38.91
  C 61.31 36.15 65.42 31.32 68.73 35.17
  A 2.14 2.14 0.0 0 1 68.32 38.33
  L 67.25 39.06
  A 1.15 1.13 -18.3 0 0 66.76 40.01
  L 66.79 48.96
  Z
  M 73.07 31.40
  A 1.46 1.46 0.0 0 0 71.61 29.94
  A 1.46 1.46 0.0 0 0 70.15 31.40
  A 1.46 1.46 0.0 0 0 71.61 32.86
  A 1.46 1.46 0.0 0 0 73.07 31.40
  Z
  M 97.31 33.61
  A 1.37 1.37 0.0 0 0 95.94 32.24
  A 1.37 1.37 0.0 0 0 94.57 33.61
  A 1.37 1.37 0.0 0 0 95.94 34.98
  A 1.37 1.37 0.0 0 0 97.31 33.61
  Z
  M 67.79 36.49
  A 1.42 1.42 0.0 0 0 66.37 35.07
  A 1.42 1.42 0.0 0 0 64.95 36.49
  A 1.42 1.42 0.0 0 0 66.37 37.91
  A 1.42 1.42 0.0 0 0 67.79 36.49
  Z
  M 78.07 35.24
  L 76.27 35.29
  A 0.50 0.50 0.0 0 0 75.79 35.80
  L 75.81 36.54
  A 1.48 1.15 88.4 0 0 77.00 37.99
  L 77.50 37.97
  A 1.48 1.15 88.4 0 0 78.61 36.46
  L 78.59 35.72
  A 0.50 0.50 0.0 0 0 78.07 35.24
  Z
  M 50.68 37.26
  A 1.48 1.48 0.0 0 0 49.20 35.78
  A 1.48 1.48 0.0 0 0 47.72 37.26
  A 1.48 1.48 0.0 0 0 49.20 38.74
  A 1.48 1.48 0.0 0 0 50.68 37.26
  Z
  M 85.64 55.53
  Q 84.81 52.67 84.17 51.29
  C 80.36 43.02 70.38 45.15 66.78 52.28
  A 1.06 1.05 7.3 0 1 66.03 52.85
  C 61.09 53.78 57.41 55.37 57.99 61.53
  Q 58.35 65.40 61.61 67.07
  Q 63.48 68.03 67.58 68.02
  Q 76.91 67.99 86.26 68.01
  C 89.90 68.01 91.72 67.03 91.91 63.25
  Q 92.24 56.68 86.30 56.08
  Q 85.78 56.03 85.64 55.53
  Z
  M 100.8070 48.7267
  A 1.03 1.03 0.0 0 0 99.9591 47.5423
  L 99.3277 47.4377
  A 1.03 1.03 0.0 0 0 98.1433 48.2857
  L 97.9930 49.1933
  A 1.03 1.03 0.0 0 0 98.8409 50.3777
  L 99.4723 50.4823
  A 1.03 1.03 0.0 0 0 100.6567 49.6343
  L 100.8070 48.7267
  Z
  M 106.3115 53.9772
  A 0.69 0.69 0.0 0 0 105.6460 53.2635
  L 104.3468 53.2181
  A 0.69 0.69 0.0 0 0 103.6332 53.8836
  L 103.5885 55.1628
  A 0.69 0.69 0.0 0 0 104.2540 55.8765
  L 105.5532 55.9219
  A 0.69 0.69 0.0 0 0 106.2668 55.2564
  L 106.3115 53.9772
  Z
  M 50.30 57.70
  L 51.90 56.59
  A 0.45 0.45 0.0 0 0 52.01 55.97
  L 51.90 55.80
  A 2.09 1.29 55.3 0 0 49.65 54.82
  L 49.43 54.97
  A 2.09 1.29 55.3 0 0 49.56 57.42
  L 49.68 57.58
  A 0.45 0.45 0.0 0 0 50.30 57.70
  Z
  M 98.37 60.63
  L 100.00 61.17
  A 0.44 0.44 0.0 0 0 100.56 60.89
  L 100.60 60.77
  A 2.17 1.21 -71.6 0 0 100.14 58.33
  L 99.97 58.27
  A 2.17 1.21 -71.6 0 0 98.13 59.95
  L 98.09 60.07
  A 0.44 0.44 0.0 0 0 98.37 60.63
  Z
  M 46.5321 61.2354
  A 0.88 0.88 0.0 0 0 45.7321 60.2820
  L 44.6562 60.1879
  A 0.88 0.88 0.0 0 0 43.7029 60.9879
  L 43.6279 61.8446
  A 0.88 0.88 0.0 0 0 44.4279 62.7980
  L 45.5038 62.8921
  A 0.88 0.88 0.0 0 0 46.4571 62.0921
  L 46.5321 61.2354
  Z
  M 50.5282 68.8875
  A 1.58 1.39 86.8 0 0 51.8278 67.2324
  A 1.58 1.39 86.8 0 0 50.3518 65.7325
  A 1.58 1.39 86.8 0 0 49.0522 67.3876
  A 1.58 1.39 86.8 0 0 50.5282 68.8875
  Z
  M 104.12 78.57
  A 1.39 1.39 0.0 0 0 102.73 77.18
  A 1.39 1.39 0.0 0 0 101.34 78.57
  A 1.39 1.39 0.0 0 0 102.73 79.96
  A 1.39 1.39 0.0 0 0 104.12 78.57
  Z
  M 71.72 80.43
  L 73.36 80.21
  A 0.49 0.49 0.0 0 0 73.78 79.65
  L 73.63 78.52
  A 1.33 1.22 82.3 0 0 72.24 77.37
  L 72.04 77.40
  A 1.33 1.22 82.3 0 0 71.01 78.88
  L 71.16 80.01
  A 0.49 0.49 0.0 0 0 71.72 80.43
  Z
  M 84.60 78.99
  A 1.53 1.53 0.0 0 0 83.07 77.46
  A 1.53 1.53 0.0 0 0 81.54 78.99
  A 1.53 1.53 0.0 0 0 83.07 80.52
  A 1.53 1.53 0.0 0 0 84.60 78.99
  Z
  M 54.94 80.40
  A 1.42 1.42 0.0 0 0 53.52 78.98
  A 1.42 1.42 0.0 0 0 52.10 80.40
  A 1.42 1.42 0.0 0 0 53.52 81.82
  A 1.42 1.42 0.0 0 0 54.94 80.40
  Z
  M 79.11 84.30
  A 1.37 1.37 0.0 0 0 77.74 82.93
  A 1.37 1.37 0.0 0 0 76.37 84.30
  A 1.37 1.37 0.0 0 0 77.74 85.67
  A 1.37 1.37 0.0 0 0 79.11 84.30
  Z"
/>
<circle fill="#172930" cx="71.61" cy="31.40" r="1.46"/>
<circle fill="#172930" cx="95.94" cy="33.61" r="1.37"/>
<circle fill="#172930" cx="66.37" cy="36.49" r="1.42"/>
<path fill="#172930" d="
  M 78.07 35.24
  A 0.50 0.50 0.0 0 1 78.59 35.72
  L 78.61 36.46
  A 1.48 1.15 88.4 0 1 77.50 37.97
  L 77.00 37.99
  A 1.48 1.15 88.4 0 1 75.81 36.54
  L 75.79 35.80
  A 0.50 0.50 0.0 0 1 76.27 35.29
  L 78.07 35.24
  Z"
/>
<circle fill="#172930" cx="49.20" cy="37.26" r="1.48"/>
<path fill="#202430" d="
  M 86.30 56.08
  Q 92.24 56.68 91.91 63.25
  C 91.72 67.03 89.90 68.01 86.26 68.01
  Q 76.91 67.99 67.58 68.02
  Q 63.48 68.03 61.61 67.07
  Q 58.35 65.40 57.99 61.53
  C 57.41 55.37 61.09 53.78 66.03 52.85
  A 1.06 1.05 7.3 0 0 66.78 52.28
  C 70.38 45.15 80.36 43.02 84.17 51.29
  Q 84.81 52.67 85.64 55.53
  Q 85.78 56.03 86.30 56.08
  Z"
/>
<rect fill="#172930" x="-1.35" y="-1.49" transform="translate(99.40,48.96) rotate(9.4)" width="2.70" height="2.98" rx="1.03"/>
<rect fill="#172930" x="-1.34" y="-1.33" transform="translate(104.95,54.57) rotate(2.0)" width="2.68" height="2.66" rx="0.69"/>
<path fill="#172930" d="
  M 50.30 57.70
  A 0.45 0.45 0.0 0 1 49.68 57.58
  L 49.56 57.42
  A 2.09 1.29 55.3 0 1 49.43 54.97
  L 49.65 54.82
  A 2.09 1.29 55.3 0 1 51.90 55.80
  L 52.01 55.97
  A 0.45 0.45 0.0 0 1 51.90 56.59
  L 50.30 57.70
  Z"
/>
<path fill="#172930" d="
  M 98.37 60.63
  A 0.44 0.44 0.0 0 1 98.09 60.07
  L 98.13 59.95
  A 2.17 1.21 -71.6 0 1 99.97 58.27
  L 100.14 58.33
  A 2.17 1.21 -71.6 0 1 100.60 60.77
  L 100.56 60.89
  A 0.44 0.44 0.0 0 1 100.00 61.17
  L 98.37 60.63
  Z"
/>
<rect fill="#172930" x="-1.42" y="-1.31" transform="translate(45.08,61.54) rotate(5.0)" width="2.84" height="2.62" rx="0.88"/>
<ellipse fill="#172930" cx="0.00" cy="0.00" transform="translate(50.44,67.31) rotate(86.8)" rx="1.58" ry="1.39"/>
<circle fill="#172930" cx="102.73" cy="78.57" r="1.39"/>
<path fill="#172930" d="
  M 71.72 80.43
  A 0.49 0.49 0.0 0 1 71.16 80.01
  L 71.01 78.88
  A 1.33 1.22 82.3 0 1 72.04 77.40
  L 72.24 77.37
  A 1.33 1.22 82.3 0 1 73.63 78.52
  L 73.78 79.65
  A 0.49 0.49 0.0 0 1 73.36 80.21
  L 71.72 80.43
  Z"
/>
<circle fill="#172930" cx="83.07" cy="78.99" r="1.53"/>
<circle fill="#172930" cx="53.52" cy="80.40" r="1.42"/>
<circle fill="#172930" cx="77.74" cy="84.30" r="1.37"/>
<path fill="#ffffff" d="
  M 84.7897 122.4799
  A 11.38 10.78 89.8 0 1 73.9701 111.1376
  A 11.38 10.78 89.8 0 1 84.7103 99.7201
  A 11.38 10.78 89.8 0 1 95.5299 111.0624
  A 11.38 10.78 89.8 0 1 84.7897 122.4799
  Z
  M 84.6447 119.0690
  A 7.98 6.55 90.9 0 0 91.3192 111.1929
  A 7.98 6.55 90.9 0 0 84.8953 103.1110
  A 7.98 6.55 90.9 0 0 78.2208 110.9871
  A 7.98 6.55 90.9 0 0 84.6447 119.0690
  Z"
/>
<path fill="#ffffff" d="
  M 17.96 107.26
  L 17.95 121.24
  Q 17.95 121.94 17.25 121.94
  L 14.25 121.96
  Q 13.79 121.96 13.79 121.50
  L 13.81 100.97
  A 0.72 0.71 -89.6 0 1 14.53 100.25
  L 17.86 100.26
  Q 18.30 100.26 18.55 100.62
  L 28.26 114.67
  Q 28.92 115.63 28.91 114.46
  L 28.78 100.75
  A 0.47 0.47 0.0 0 1 29.25 100.27
  L 32.47 100.24
  Q 32.95 100.23 32.95 100.72
  L 32.96 121.23
  Q 32.96 121.69 32.52 121.80
  C 30.39 122.37 28.84 122.29 27.45 120.36
  Q 22.84 113.93 18.36 107.14
  A 0.22 0.22 0.0 0 0 17.96 107.26
  Z"
/>
<path fill="#ffffff" d="
  M 41.87 109.19
  L 49.60 109.18
  A 0.37 0.37 0.0 0 1 49.97 109.55
  L 49.95 112.27
  A 0.37 0.37 0.0 0 1 49.58 112.64
  L 41.87 112.61
  A 0.37 0.37 0.0 0 0 41.50 112.98
  L 41.50 118.13
  A 0.37 0.37 0.0 0 0 41.87 118.50
  L 51.64 118.50
  A 0.37 0.37 0.0 0 1 52.01 118.87
  L 51.97 121.58
  A 0.37 0.37 0.0 0 1 51.60 121.95
  L 37.62 121.96
  A 0.37 0.37 0.0 0 1 37.25 121.59
  L 37.25 100.62
  A 0.37 0.37 0.0 0 1 37.62 100.25
  L 51.17 100.25
  A 0.37 0.37 0.0 0 1 51.54 100.60
  L 51.71 103.36
  A 0.37 0.37 0.0 0 1 51.34 103.75
  L 41.86 103.74
  A 0.37 0.37 0.0 0 0 41.49 104.11
  L 41.50 108.82
  A 0.37 0.37 0.0 0 0 41.87 109.19
  Z"
/>
<path fill="#ffffff" d="
  M 57.81 121.94
  L 53.83 121.97
  A 0.34 0.34 0.0 0 1 53.55 121.43
  L 60.95 111.16
  A 0.34 0.34 0.0 0 0 60.95 110.76
  L 53.98 100.80
  A 0.34 0.34 0.0 0 1 54.26 100.26
  L 58.30 100.23
  A 0.34 0.34 0.0 0 1 58.59 100.39
  L 63.23 107.48
  A 0.34 0.34 0.0 0 0 63.80 107.48
  L 68.65 100.40
  A 0.34 0.34 0.0 0 1 68.93 100.25
  L 72.98 100.26
  A 0.34 0.34 0.0 0 1 73.25 100.80
  L 66.11 110.69
  A 0.34 0.34 0.0 0 0 66.11 111.09
  L 73.53 121.40
  A 0.34 0.34 0.0 0 1 73.26 121.94
  L 69.27 121.95
  A 0.34 0.34 0.0 0 1 68.99 121.80
  L 63.87 114.19
  A 0.34 0.34 0.0 0 0 63.31 114.19
  L 58.09 121.79
  A 0.34 0.34 0.0 0 1 57.81 121.94
  Z"
/>
<path fill="#ffffff" d="
  M 106.94 115.29
  L 112.38 100.47
  A 0.35 0.35 0.0 0 1 112.71 100.24
  L 116.43 100.28
  A 0.35 0.35 0.0 0 1 116.75 100.75
  L 108.49 121.74
  A 0.35 0.35 0.0 0 1 108.16 121.96
  L 104.92 121.96
  A 0.35 0.35 0.0 0 1 104.59 121.74
  L 96.46 100.75
  A 0.35 0.35 0.0 0 1 96.78 100.27
  L 100.38 100.23
  A 0.35 0.35 0.0 0 1 100.72 100.46
  L 106.28 115.30
  A 0.35 0.35 0.0 0 0 106.94 115.29
  Z"
/>
<path fill="#ffffff" d="
  M 121.52 116.60
  L 119.52 121.68
  A 0.49 0.49 0.0 0 1 119.05 121.99
  L 115.77 121.89
  A 0.49 0.49 0.0 0 1 115.33 121.22
  L 123.51 100.56
  A 0.49 0.49 0.0 0 1 123.96 100.25
  L 127.19 100.25
  A 0.49 0.49 0.0 0 1 127.64 100.56
  L 135.85 121.30
  A 0.49 0.49 0.0 0 1 135.40 121.97
  L 132.01 121.96
  A 0.49 0.49 0.0 0 1 131.55 121.63
  L 129.82 116.69
  A 0.49 0.49 0.0 0 0 129.36 116.36
  L 121.98 116.29
  A 0.49 0.49 0.0 0 0 121.52 116.60
  Z
  M 122.85 112.56
  A 0.34 0.34 0.0 0 0 123.17 113.01
  L 127.91 112.98
  A 0.34 0.34 0.0 0 0 128.22 112.52
  L 125.81 106.10
  A 0.34 0.34 0.0 0 0 125.17 106.11
  L 122.85 112.56
  Z"
/>
<ellipse fill="#202430" cx="0.00" cy="0.00" transform="translate(84.77,111.09) rotate(90.9)" rx="7.98" ry="6.55"/>
<path fill="#202430" d="
  M 122.85 112.56
  L 125.17 106.11
  A 0.34 0.34 0.0 0 1 125.81 106.10
  L 128.22 112.52
  A 0.34 0.34 0.0 0 1 127.91 112.98
  L 123.17 113.01
  A 0.34 0.34 0.0 0 1 122.85 112.56
  Z"
/>
</svg>
