<?xml version="1.0" encoding="UTF-8" standalone="no"?>
<!DOCTYPE svg PUBLIC "-//W3C//DTD SVG 1.1//EN" "http://www.w3.org/Graphics/SVG/1.1/DTD/svg11.dtd">
<svg xmlns="http://www.w3.org/2000/svg" version="1.1" viewBox="0.00 0.00 1471.00 1425.00">
<g stroke-width="2.00" fill="none" stroke-linecap="butt">
<path stroke="#168861" vector-effect="non-scaling-stroke" d="
  M 936.22 723.34
  Q 935.58 722.02 937.51 722.02
  Q 1034.07 722.01 1130.62 722.32
  Q 1134.20 722.33 1135.60 724.69
  C 1147.48 744.84 1160.65 757.64 1185.80 754.20
  C 1189.17 753.74 1193.64 752.61 1196.20 750.97
  C 1212.55 740.45 1225.35 724.71 1220.25 704.12
  C 1217.17 691.67 1210.58 680.37 1198.87 674.96
  Q 1195.91 673.60 1188.19 671.36
  C 1167.87 665.49 1147.72 676.03 1138.61 694.40
  Q 1135.74 700.19 1129.25 700.20
  Q 1013.88 700.28 898.70 700.24
  A 1.11 1.10 -8.0 0 1 897.64 699.45
  Q 889.06 670.47 875.28 643.51
  C 874.14 641.28 875.65 640.01 877.87 640.01
  Q 963.68 640.01 1049.50 639.92
  Q 1052.01 639.92 1052.84 641.70
  C 1061.70 660.78 1082.39 677.97 1104.74 669.47
  C 1121.43 663.11 1135.32 650.95 1136.31 632.31
  C 1136.83 622.35 1134.60 612.27 1129.32 603.65
  Q 1124.01 594.97 1117.17 591.81
  Q 1108.57 587.85 1103.00 586.51
  C 1081.07 581.24 1059.30 595.11 1052.17 616.29
  Q 1051.62 617.93 1049.75 617.93
  Q 956.29 617.97 862.25 618.02
  A 2.24 2.24 0.0 0 1 860.01 615.78
  L 860.03 411.48
  A 1.97 1.97 0.0 0 1 862.00 409.51
  Q 929.48 409.57 997.00 410.11
  Q 1000.54 410.13 1001.47 411.78
  Q 1008.81 424.89 1021.42 432.73
  C 1028.53 437.16 1036.37 436.97 1045.01 436.60
  C 1075.35 435.33 1089.33 404.07 1079.96 377.48
  C 1072.45 356.19 1047.85 349.26 1027.72 354.49
  C 1012.66 358.41 1003.09 370.69 998.73 384.78
  A 1.74 1.73 -81.4 0 1 997.09 386.00
  Q 923.64 386.19 849.75 386.13
  C 840.09 386.12 835.62 393.42 835.60 402.25
  Q 835.44 494.62 835.32 587.00
  Q 835.32 589.23 835.22 591.04
  A 1.07 1.06 -68.9 0 1 833.49 591.81
  Q 803.74 567.75 766.03 560.72
  A 1.55 1.53 5.4 0 1 764.77 559.21
  Q 764.77 521.37 764.80 483.26
  C 764.80 481.39 765.58 479.12 767.33 478.56
  C 789.73 471.44 802.15 448.58 795.35 426.24
  C 791.15 412.43 778.72 397.92 763.75 396.31
  C 754.83 395.36 743.33 395.23 735.22 399.95
  C 724.41 406.25 712.72 421.06 711.03 433.64
  C 710.22 439.65 711.77 444.91 713.80 450.73
  C 718.12 463.16 725.80 472.57 738.19 477.06
  Q 742.71 478.70 742.72 483.00
  Q 742.75 521.37 742.75 559.59
  A 1.23 1.23 0.0 0 1 741.50 560.82
  C 731.05 560.66 720.17 560.67 710.23 562.35
  Q 698.50 564.33 687.21 568.20
  C 684.68 569.07 682.58 568.56 682.58 565.50
  Q 682.49 484.09 682.50 402.76
  A 1.71 1.70 79.9 0 1 683.61 401.16
  C 695.71 396.64 705.02 390.13 709.29 377.45
  Q 720.24 344.94 693.86 324.72
  Q 690.61 322.23 685.30 320.44
  Q 664.65 313.50 647.17 325.16
  Q 632.51 334.93 629.21 350.30
  C 624.07 374.21 636.86 392.40 658.02 401.98
  A 1.70 1.70 0.0 0 1 659.02 403.53
  Q 658.98 490.48 658.70 577.74
  Q 658.69 580.45 656.63 581.90
  C 647.76 588.15 637.21 593.26 629.07 601.07
  C 623.12 606.77 617.34 613.02 610.32 619.57
  C 606.15 623.47 602.53 627.95 598.23 631.68
  A 0.91 0.91 0.0 0 1 596.73 630.99
  Q 596.75 557.17 596.78 483.08
  C 596.78 481.67 597.49 479.76 598.86 479.52
  C 616.40 476.51 627.81 463.41 631.67 446.43
  C 636.16 426.67 621.18 401.33 601.00 396.98
  C 591.73 394.98 579.42 395.33 570.88 399.84
  C 556.96 407.19 542.79 427.64 546.77 443.75
  C 549.42 454.45 559.20 476.77 573.36 476.17
  A 1.34 1.34 0.0 0 1 574.76 477.51
  L 574.87 629.94
  Q 574.87 632.50 572.31 632.49
  L 340.40 632.28
  Q 339.77 632.28 339.77 631.65
  L 339.81 492.48
  Q 339.81 490.58 341.71 490.40
  C 357.97 488.85 372.95 463.21 371.16 448.25
  C 368.75 428.03 357.88 415.62 338.65 409.58
  C 334.04 408.13 330.68 406.95 326.76 407.45
  C 298.50 411.09 277.80 436.56 287.96 465.28
  C 291.27 474.63 299.13 481.22 307.63 488.09
  Q 311.05 490.86 315.15 490.41
  A 1.92 1.92 0.0 0 1 317.27 492.19
  Q 317.49 495.61 317.52 499.25
  Q 318.12 572.75 317.96 646.25
  C 317.94 652.45 321.90 654.24 327.65 654.24
  Q 450.21 654.25 573.03 654.24
  Q 574.32 654.24 574.48 655.53
  L 575.87 666.97
  A 0.92 0.92 0.0 0 1 574.94 668.00
  C 569.37 667.94 564.02 668.01 558.41 669.01
  C 544.99 671.40 530.56 673.68 517.92 679.16
  C 501.30 686.37 482.70 697.61 471.36 711.67
  C 467.84 716.04 461.53 725.18 455.25 725.23
  Q 440.56 725.34 392.24 725.21
  C 390.39 725.21 388.71 724.67 388.03 722.98
  C 382.41 709.01 371.69 700.32 357.49 695.85
  Q 351.01 693.81 345.80 694.01
  C 332.70 694.52 315.46 703.97 309.54 715.78
  Q 308.26 718.33 307.01 724.80
  Q 305.89 730.58 304.02 736.10
  A 1.67 1.64 -46.0 0 0 304.03 737.23
  Q 306.89 744.92 307.32 753.29
  C 307.56 757.90 318.62 768.07 321.38 770.39
  C 341.87 787.59 370.05 779.71 383.76 758.49
  C 386.18 754.74 387.78 747.87 393.75 747.83
  Q 420.87 747.64 448.05 747.76
  A 0.49 0.49 0.0 0 1 448.51 748.41
  Q 444.35 760.62 441.13 773.28
  C 438.55 783.40 438.74 795.37 439.06 805.78
  A 1.53 1.53 0.0 0 1 437.53 807.35
  Q 374.49 807.22 311.00 807.18
  Q 307.94 807.18 306.96 805.28
  C 298.59 788.94 281.81 777.43 263.24 778.53
  C 252.45 779.17 240.25 785.85 233.31 793.57
  C 227.75 799.76 224.45 809.18 223.43 817.34
  C 221.65 831.56 228.25 843.80 239.26 852.76
  C 246.41 858.59 255.69 863.46 264.80 864.01
  C 274.49 864.61 285.88 859.02 293.62 852.86
  Q 303.06 845.36 307.35 835.73
  C 308.35 833.49 309.30 832.56 311.75 832.56
  Q 374.38 832.63 437.00 832.68
  Q 440.70 832.68 441.48 835.74
  Q 445.77 852.72 450.16 863.86
  C 454.27 874.29 460.90 882.88 467.14 891.75
  A 0.79 0.79 0.0 0 1 466.49 893.00
  L 388.77 892.93
  A 1.73 1.72 78.3 0 1 387.19 891.89
  C 381.22 878.14 367.49 868.82 353.23 865.62
  C 339.71 862.59 321.88 871.11 313.25 881.36
  C 307.29 888.43 306.55 898.03 304.41 906.79
  Q 304.06 908.22 304.22 908.76
  Q 306.30 915.51 307.27 922.50
  C 308.93 934.51 325.86 945.80 336.42 949.01
  C 361.26 956.58 383.19 938.58 390.30 915.85
  A 1.41 1.40 8.8 0 1 391.64 914.87
  Q 440.32 914.86 488.68 915.03
  C 491.93 915.04 495.07 915.83 497.51 917.51
  C 515.71 930.09 539.50 940.39 563.00 940.16
  Q 569.96 940.10 576.67 939.93
  A 1.80 1.79 89.4 0 1 578.50 941.73
  L 578.44 1094.65
  Q 578.44 1096.50 576.59 1096.50
  Q 508.13 1096.52 439.46 1096.54
  C 434.07 1096.54 433.35 1091.57 431.65 1087.84
  C 426.21 1075.87 415.59 1068.85 402.74 1065.35
  C 380.36 1059.25 358.58 1075.66 352.71 1096.65
  C 351.61 1100.59 349.32 1104.73 350.36 1108.94
  C 353.16 1120.23 356.48 1131.44 365.73 1139.25
  C 372.32 1144.81 385.31 1150.73 394.59 1150.55
  C 410.29 1150.25 420.89 1139.82 430.54 1128.93
  Q 431.97 1127.31 432.56 1125.10
  C 433.07 1123.22 432.97 1119.99 435.33 1119.35
  Q 439.20 1118.31 442.50 1118.33
  Q 517.13 1118.66 591.76 1118.43
  C 598.82 1118.41 600.48 1112.53 600.46 1106.75
  Q 600.14 1024.38 600.16 942.35
  Q 600.16 940.01 602.51 940.00
  L 670.22 939.97
  A 1.02 1.02 0.0 0 1 671.24 940.99
  Q 671.41 990.09 671.21 1039.50
  C 671.20 1042.78 668.90 1045.49 665.51 1046.09
  C 661.83 1046.74 658.97 1047.09 655.76 1049.72
  C 644.44 1058.98 637.56 1070.84 637.80 1085.99
  C 638.16 1108.19 654.79 1126.05 676.57 1128.77
  C 681.07 1129.33 685.03 1128.86 689.24 1127.57
  C 706.82 1122.15 721.41 1107.56 722.01 1088.49
  Q 722.77 1063.99 704.26 1049.34
  C 701.36 1047.05 698.78 1046.34 695.24 1046.64
  A 1.88 1.87 87.5 0 1 693.21 1044.78
  L 693.00 941.98
  Q 693.00 939.95 695.02 939.96
  L 751.61 940.05
  Q 753.53 940.06 753.53 941.97
  Q 753.50 1031.55 753.41 1121.25
  Q 753.41 1124.77 750.76 1125.79
  Q 728.50 1134.39 722.68 1155.95
  C 718.47 1171.52 723.69 1184.63 734.03 1196.48
  C 742.54 1206.24 753.36 1208.01 765.26 1208.48
  Q 774.89 1208.86 783.27 1204.49
  C 785.21 1203.48 789.16 1201.80 790.99 1199.73
  Q 795.07 1195.10 801.95 1185.21
  C 811.42 1171.57 806.89 1150.87 796.66 1138.42
  C 792.22 1133.01 786.54 1130.15 780.33 1127.18
  C 777.98 1126.05 775.46 1124.24 775.46 1121.75
  Q 775.45 1031.74 775.49 941.55
  A 1.53 1.53 0.0 0 1 777.01 940.02
  L 834.23 939.97
  A 1.32 1.31 0.0 0 1 835.55 941.28
  Q 835.61 990.85 835.42 1040.00
  C 835.41 1044.26 833.23 1045.31 829.25 1046.18
  Q 822.33 1047.69 817.07 1052.52
  Q 803.13 1065.34 802.77 1083.49
  C 802.58 1092.89 804.33 1101.92 810.02 1109.26
  C 818.84 1120.64 833.37 1131.08 848.74 1128.65
  C 862.57 1126.47 876.09 1119.01 882.17 1105.91
  C 889.32 1090.50 888.18 1072.45 878.02 1058.81
  C 873.70 1053.02 867.32 1046.16 859.33 1046.52
  A 1.78 1.78 0.0 0 1 857.47 1044.75
  L 857.42 941.51
  A 1.39 1.39 0.0 0 1 858.77 940.12
  C 867.80 939.82 876.00 939.84 885.72 940.37
  Q 901.03 941.22 909.75 941.12
  C 933.92 940.85 958.94 932.04 975.43 913.92
  Q 979.37 909.59 983.09 905.06
  Q 986.61 900.76 992.25 900.76
  Q 1059.01 900.76 1125.69 900.79
  A 1.32 1.31 89.8 0 1 1127.00 902.10
  Q 1127.10 968.76 1126.90 1035.25
  C 1126.88 1041.82 1120.33 1043.16 1116.81 1045.82
  Q 1108.10 1052.41 1104.52 1062.74
  C 1102.26 1069.26 1100.44 1076.48 1101.37 1083.49
  C 1103.38 1098.79 1111.29 1111.46 1125.52 1117.93
  C 1139.45 1124.28 1153.08 1124.68 1165.74 1115.16
  C 1176.00 1107.44 1186.23 1096.22 1186.76 1082.51
  C 1187.58 1061.20 1174.62 1044.52 1154.54 1038.09
  C 1152.61 1037.47 1150.24 1036.20 1150.24 1034.25
  Q 1150.23 962.63 1149.80 891.00
  C 1149.74 880.34 1144.75 875.06 1134.00 875.13
  Q 1066.09 875.52 998.15 875.12
  A 0.66 0.62 -28.2 0 1 997.82 875.03
  Q 997.08 874.63 997.59 873.78
  C 998.73 871.91 999.53 870.24 999.66 867.93
  Q 1000.30 857.05 1003.20 842.76
  C 1004.34 837.17 1004.39 830.41 1002.76 824.44
  C 1000.97 817.88 999.99 812.30 999.98 806.00
  A 1.80 1.79 -0.2 0 1 1001.78 804.20
  L 1055.50 804.39
  A 0.81 0.80 84.8 0 1 1056.29 805.06
  Q 1057.37 811.52 1061.60 816.91
  Q 1073.68 832.32 1093.03 835.95
  C 1102.98 837.82 1114.69 832.50 1122.53 826.52
  Q 1141.42 812.12 1138.96 788.03
  Q 1137.64 775.18 1131.56 767.23
  C 1120.44 752.68 1097.38 745.75 1080.54 753.57
  C 1069.88 758.52 1057.19 768.86 1056.26 781.70
  A 0.62 0.62 0.0 0 1 1055.64 782.28
  Q 1025.64 782.49 996.50 782.78
  Q 994.93 782.80 994.35 781.43
  C 985.71 760.91 970.54 741.57 950.86 730.83
  Q 944.00 727.08 936.76 723.85
  A 1.12 1.12 0.0 0 1 936.22 723.34"
/>
<path stroke="#118b61" vector-effect="non-scaling-stroke" d="
  M 689.76 360.09
  A 19.54 19.54 0.0 0 0 670.22 340.55
  A 19.54 19.54 0.0 0 0 650.68 360.09
  A 19.54 19.54 0.0 0 0 670.22 379.63
  A 19.54 19.54 0.0 0 0 689.76 360.09"
/>
<path stroke="#118b61" vector-effect="non-scaling-stroke" d="
  M 1060.29 395.06
  A 19.60 19.60 0.0 0 0 1040.69 375.46
  A 19.60 19.60 0.0 0 0 1021.09 395.06
  A 19.60 19.60 0.0 0 0 1040.69 414.66
  A 19.60 19.60 0.0 0 0 1060.29 395.06"
/>
<path stroke="#118b61" vector-effect="non-scaling-stroke" d="
  M 609.46 437.91
  A 19.66 19.66 0.0 0 0 589.80 418.25
  A 19.66 19.66 0.0 0 0 570.14 437.91
  A 19.66 19.66 0.0 0 0 589.80 457.57
  A 19.66 19.66 0.0 0 0 609.46 437.91"
/>
<path stroke="#118b61" vector-effect="non-scaling-stroke" d="
  M 774.34 437.95
  A 19.68 19.68 0.0 0 0 754.66 418.27
  A 19.68 19.68 0.0 0 0 734.98 437.95
  A 19.68 19.68 0.0 0 0 754.66 457.63
  A 19.68 19.68 0.0 0 0 774.34 437.95"
/>
<path stroke="#118b61" vector-effect="non-scaling-stroke" d="
  M 342.1684 437.3184
  A 19.66 19.37 -44.1 0 0 314.5702 437.0899
  A 19.66 19.37 -44.1 0 0 313.9316 464.6816
  A 19.66 19.37 -44.1 0 0 341.5298 464.9101
  A 19.66 19.37 -44.1 0 0 342.1684 437.3184"
/>
<path stroke="#168861" vector-effect="non-scaling-stroke" d="
  M 815.97 607.48
  C 797.85 591.63 776.17 586.56 752.92 583.64
  Q 744.68 582.61 738.75 583.03
  Q 721.20 584.26 701.13 589.00
  C 666.41 597.20 635.67 621.38 614.58 649.60
  C 606.80 660.01 598.31 674.11 590.27 686.31
  Q 588.16 689.52 585.01 689.69
  C 559.16 691.05 532.15 695.97 510.78 708.78
  C 453.31 743.24 443.94 832.94 489.36 880.88
  Q 506.79 899.27 529.63 908.50
  Q 534.03 910.28 538.43 912.12
  C 549.70 916.85 560.53 919.15 572.82 918.86
  Q 579.61 918.69 579.69 918.69
  Q 737.22 918.12 894.75 918.23
  C 916.87 918.24 935.93 915.74 954.35 903.30
  C 958.21 900.70 961.51 897.48 963.85 893.78
  C 970.45 883.34 976.87 868.63 977.98 855.75
  Q 979.54 837.61 978.09 817.78
  C 976.72 798.98 969.98 782.56 959.86 766.87
  Q 958.30 764.44 955.95 762.79
  C 942.34 753.23 931.39 744.74 913.76 740.68
  C 905.40 738.75 890.32 742.88 882.74 735.28
  C 878.37 730.89 878.99 725.80 878.67 720.36
  Q 878.44 716.46 877.58 712.87
  C 870.83 684.82 859.67 658.41 842.83 634.92
  C 840.43 631.57 836.00 624.79 832.75 622.00
  Q 824.32 614.78 815.97 607.48"
/>
<path stroke="#118b61" vector-effect="non-scaling-stroke" d="
  M 1087.9740 647.0053
  A 19.79 19.11 107.0 0 0 1112.0350 633.6672
  A 19.79 19.11 107.0 0 0 1099.5460 609.1547
  A 19.79 19.11 107.0 0 0 1075.4850 622.4928
  A 19.79 19.11 107.0 0 0 1087.9740 647.0053"
/>
<path stroke="#118b61" vector-effect="non-scaling-stroke" d="
  M 1176.9549 732.4802
  A 19.90 19.01 91.8 0 0 1196.5806 713.1871
  A 19.90 19.01 91.8 0 0 1178.2051 692.6998
  A 19.90 19.01 91.8 0 0 1158.5794 711.9929
  A 19.90 19.01 91.8 0 0 1176.9549 732.4802"
/>
<path stroke="#118b61" vector-effect="non-scaling-stroke" d="
  M 352.5359 756.6187
  A 20.07 18.84 74.7 0 0 365.4123 732.2886
  A 20.07 18.84 74.7 0 0 341.9441 717.9013
  A 20.07 18.84 74.7 0 0 329.0677 742.2314
  A 20.07 18.84 74.7 0 0 352.5359 756.6187"
/>
<path stroke="#118b61" vector-effect="non-scaling-stroke" d="
  M 1095.4547 812.5135
  A 19.58 18.89 93.5 0 0 1115.5048 794.1232
  A 19.58 18.89 93.5 0 0 1097.8453 773.4265
  A 19.58 18.89 93.5 0 0 1077.7952 791.8168
  A 19.58 18.89 93.5 0 0 1095.4547 812.5135"
/>
<path stroke="#118b61" vector-effect="non-scaling-stroke" d="
  M 261.4040 840.0232
  A 19.81 19.20 104.1 0 0 284.8515 825.4874
  A 19.81 19.20 104.1 0 0 271.0560 801.5968
  A 19.81 19.20 104.1 0 0 247.6085 816.1326
  A 19.81 19.20 104.1 0 0 261.4040 840.0232"
/>
<path stroke="#118b61" vector-effect="non-scaling-stroke" d="
  M 351.8996 927.7885
  A 19.96 18.94 76.5 0 0 365.6567 903.9585
  A 19.96 18.94 76.5 0 0 342.5804 888.9715
  A 19.96 18.94 76.5 0 0 328.8233 912.8015
  A 19.96 18.94 76.5 0 0 351.8996 927.7885"
/>
<path stroke="#118b61" vector-effect="non-scaling-stroke" d="
  M 1163.56 1079.42
  A 19.66 19.66 0.0 0 0 1143.90 1059.76
  A 19.66 19.66 0.0 0 0 1124.24 1079.42
  A 19.66 19.66 0.0 0 0 1143.90 1099.08
  A 19.66 19.66 0.0 0 0 1163.56 1079.42"
/>
<path stroke="#118b61" vector-effect="non-scaling-stroke" d="
  M 699.6002 1080.7944
  A 19.90 19.43 -13.5 0 0 675.7142 1066.5469
  A 19.90 19.43 -13.5 0 0 660.8998 1090.0856
  A 19.90 19.43 -13.5 0 0 684.7858 1104.3331
  A 19.90 19.43 -13.5 0 0 699.6002 1080.7944"
/>
<path stroke="#118b61" vector-effect="non-scaling-stroke" d="
  M 864.5940 1085.8172
  A 19.94 19.45 1.4 0 0 845.1352 1065.8858
  A 19.94 19.45 1.4 0 0 824.7260 1084.8428
  A 19.94 19.45 1.4 0 0 844.1848 1104.7742
  A 19.94 19.45 1.4 0 0 864.5940 1085.8172"
/>
<path stroke="#118b61" vector-effect="non-scaling-stroke" d="
  M 413.52 1107.09
  A 19.54 19.54 0.0 0 0 393.98 1087.55
  A 19.54 19.54 0.0 0 0 374.44 1107.09
  A 19.54 19.54 0.0 0 0 393.98 1126.63
  A 19.54 19.54 0.0 0 0 413.52 1107.09"
/>
<path stroke="#118b61" vector-effect="non-scaling-stroke" d="
  M 783.34 1166.41
  A 19.64 19.64 0.0 0 0 763.70 1146.77
  A 19.64 19.64 0.0 0 0 744.06 1166.41
  A 19.64 19.64 0.0 0 0 763.70 1186.05
  A 19.64 19.64 0.0 0 0 783.34 1166.41"
/>
</g>
<path fill="#202430" d="
  M 0.00 0.00
  L 1471.00 0.00
  L 1471.00 1425.00
  L 0.00 1425.00
  L 0.00 0.00
  Z
  M 936.22 723.34
  Q 935.58 722.02 937.51 722.02
  Q 1034.07 722.01 1130.62 722.32
  Q 1134.20 722.33 1135.60 724.69
  C 1147.48 744.84 1160.65 757.64 1185.80 754.20
  C 1189.17 753.74 1193.64 752.61 1196.20 750.97
  C 1212.55 740.45 1225.35 724.71 1220.25 704.12
  C 1217.17 691.67 1210.58 680.37 1198.87 674.96
  Q 1195.91 673.60 1188.19 671.36
  C 1167.87 665.49 1147.72 676.03 1138.61 694.40
  Q 1135.74 700.19 1129.25 700.20
  Q 1013.88 700.28 898.70 700.24
  A 1.11 1.10 -8.0 0 1 897.64 699.45
  Q 889.06 670.47 875.28 643.51
  C 874.14 641.28 875.65 640.01 877.87 640.01
  Q 963.68 640.01 1049.50 639.92
  Q 1052.01 639.92 1052.84 641.70
  C 1061.70 660.78 1082.39 677.97 1104.74 669.47
  C 1121.43 663.11 1135.32 650.95 1136.31 632.31
  C 1136.83 622.35 1134.60 612.27 1129.32 603.65
  Q 1124.01 594.97 1117.17 591.81
  Q 1108.57 587.85 1103.00 586.51
  C 1081.07 581.24 1059.30 595.11 1052.17 616.29
  Q 1051.62 617.93 1049.75 617.93
  Q 956.29 617.97 862.25 618.02
  A 2.24 2.24 0.0 0 1 860.01 615.78
  L 860.03 411.48
  A 1.97 1.97 0.0 0 1 862.00 409.51
  Q 929.48 409.57 997.00 410.11
  Q 1000.54 410.13 1001.47 411.78
  Q 1008.81 424.89 1021.42 432.73
  C 1028.53 437.16 1036.37 436.97 1045.01 436.60
  C 1075.35 435.33 1089.33 404.07 1079.96 377.48
  C 1072.45 356.19 1047.85 349.26 1027.72 354.49
  C 1012.66 358.41 1003.09 370.69 998.73 384.78
  A 1.74 1.73 -81.4 0 1 997.09 386.00
  Q 923.64 386.19 849.75 386.13
  C 840.09 386.12 835.62 393.42 835.60 402.25
  Q 835.44 494.62 835.32 587.00
  Q 835.32 589.23 835.22 591.04
  A 1.07 1.06 -68.9 0 1 833.49 591.81
  Q 803.74 567.75 766.03 560.72
  A 1.55 1.53 5.4 0 1 764.77 559.21
  Q 764.77 521.37 764.80 483.26
  C 764.80 481.39 765.58 479.12 767.33 478.56
  C 789.73 471.44 802.15 448.58 795.35 426.24
  C 791.15 412.43 778.72 397.92 763.75 396.31
  C 754.83 395.36 743.33 395.23 735.22 399.95
  C 724.41 406.25 712.72 421.06 711.03 433.64
  C 710.22 439.65 711.77 444.91 713.80 450.73
  C 718.12 463.16 725.80 472.57 738.19 477.06
  Q 742.71 478.70 742.72 483.00
  Q 742.75 521.37 742.75 559.59
  A 1.23 1.23 0.0 0 1 741.50 560.82
  C 731.05 560.66 720.17 560.67 710.23 562.35
  Q 698.50 564.33 687.21 568.20
  C 684.68 569.07 682.58 568.56 682.58 565.50
  Q 682.49 484.09 682.50 402.76
  A 1.71 1.70 79.9 0 1 683.61 401.16
  C 695.71 396.64 705.02 390.13 709.29 377.45
  Q 720.24 344.94 693.86 324.72
  Q 690.61 322.23 685.30 320.44
  Q 664.65 313.50 647.17 325.16
  Q 632.51 334.93 629.21 350.30
  C 624.07 374.21 636.86 392.40 658.02 401.98
  A 1.70 1.70 0.0 0 1 659.02 403.53
  Q 658.98 490.48 658.70 577.74
  Q 658.69 580.45 656.63 581.90
  C 647.76 588.15 637.21 593.26 629.07 601.07
  C 623.12 606.77 617.34 613.02 610.32 619.57
  C 606.15 623.47 602.53 627.95 598.23 631.68
  A 0.91 0.91 0.0 0 1 596.73 630.99
  Q 596.75 557.17 596.78 483.08
  C 596.78 481.67 597.49 479.76 598.86 479.52
  C 616.40 476.51 627.81 463.41 631.67 446.43
  C 636.16 426.67 621.18 401.33 601.00 396.98
  C 591.73 394.98 579.42 395.33 570.88 399.84
  C 556.96 407.19 542.79 427.64 546.77 443.75
  C 549.42 454.45 559.20 476.77 573.36 476.17
  A 1.34 1.34 0.0 0 1 574.76 477.51
  L 574.87 629.94
  Q 574.87 632.50 572.31 632.49
  L 340.40 632.28
  Q 339.77 632.28 339.77 631.65
  L 339.81 492.48
  Q 339.81 490.58 341.71 490.40
  C 357.97 488.85 372.95 463.21 371.16 448.25
  C 368.75 428.03 357.88 415.62 338.65 409.58
  C 334.04 408.13 330.68 406.95 326.76 407.45
  C 298.50 411.09 277.80 436.56 287.96 465.28
  C 291.27 474.63 299.13 481.22 307.63 488.09
  Q 311.05 490.86 315.15 490.41
  A 1.92 1.92 0.0 0 1 317.27 492.19
  Q 317.49 495.61 317.52 499.25
  Q 318.12 572.75 317.96 646.25
  C 317.94 652.45 321.90 654.24 327.65 654.24
  Q 450.21 654.25 573.03 654.24
  Q 574.32 654.24 574.48 655.53
  L 575.87 666.97
  A 0.92 0.92 0.0 0 1 574.94 668.00
  C 569.37 667.94 564.02 668.01 558.41 669.01
  C 544.99 671.40 530.56 673.68 517.92 679.16
  C 501.30 686.37 482.70 697.61 471.36 711.67
  C 467.84 716.04 461.53 725.18 455.25 725.23
  Q 440.56 725.34 392.24 725.21
  C 390.39 725.21 388.71 724.67 388.03 722.98
  C 382.41 709.01 371.69 700.32 357.49 695.85
  Q 351.01 693.81 345.80 694.01
  C 332.70 694.52 315.46 703.97 309.54 715.78
  Q 308.26 718.33 307.01 724.80
  Q 305.89 730.58 304.02 736.10
  A 1.67 1.64 -46.0 0 0 304.03 737.23
  Q 306.89 744.92 307.32 753.29
  C 307.56 757.90 318.62 768.07 321.38 770.39
  C 341.87 787.59 370.05 779.71 383.76 758.49
  C 386.18 754.74 387.78 747.87 393.75 747.83
  Q 420.87 747.64 448.05 747.76
  A 0.49 0.49 0.0 0 1 448.51 748.41
  Q 444.35 760.62 441.13 773.28
  C 438.55 783.40 438.74 795.37 439.06 805.78
  A 1.53 1.53 0.0 0 1 437.53 807.35
  Q 374.49 807.22 311.00 807.18
  Q 307.94 807.18 306.96 805.28
  C 298.59 788.94 281.81 777.43 263.24 778.53
  C 252.45 779.17 240.25 785.85 233.31 793.57
  C 227.75 799.76 224.45 809.18 223.43 817.34
  C 221.65 831.56 228.25 843.80 239.26 852.76
  C 246.41 858.59 255.69 863.46 264.80 864.01
  C 274.49 864.61 285.88 859.02 293.62 852.86
  Q 303.06 845.36 307.35 835.73
  C 308.35 833.49 309.30 832.56 311.75 832.56
  Q 374.38 832.63 437.00 832.68
  Q 440.70 832.68 441.48 835.74
  Q 445.77 852.72 450.16 863.86
  C 454.27 874.29 460.90 882.88 467.14 891.75
  A 0.79 0.79 0.0 0 1 466.49 893.00
  L 388.77 892.93
  A 1.73 1.72 78.3 0 1 387.19 891.89
  C 381.22 878.14 367.49 868.82 353.23 865.62
  C 339.71 862.59 321.88 871.11 313.25 881.36
  C 307.29 888.43 306.55 898.03 304.41 906.79
  Q 304.06 908.22 304.22 908.76
  Q 306.30 915.51 307.27 922.50
  C 308.93 934.51 325.86 945.80 336.42 949.01
  C 361.26 956.58 383.19 938.58 390.30 915.85
  A 1.41 1.40 8.8 0 1 391.64 914.87
  Q 440.32 914.86 488.68 915.03
  C 491.93 915.04 495.07 915.83 497.51 917.51
  C 515.71 930.09 539.50 940.39 563.00 940.16
  Q 569.96 940.10 576.67 939.93
  A 1.80 1.79 89.4 0 1 578.50 941.73
  L 578.44 1094.65
  Q 578.44 1096.50 576.59 1096.50
  Q 508.13 1096.52 439.46 1096.54
  C 434.07 1096.54 433.35 1091.57 431.65 1087.84
  C 426.21 1075.87 415.59 1068.85 402.74 1065.35
  C 380.36 1059.25 358.58 1075.66 352.71 1096.65
  C 351.61 1100.59 349.32 1104.73 350.36 1108.94
  C 353.16 1120.23 356.48 1131.44 365.73 1139.25
  C 372.32 1144.81 385.31 1150.73 394.59 1150.55
  C 410.29 1150.25 420.89 1139.82 430.54 1128.93
  Q 431.97 1127.31 432.56 1125.10
  C 433.07 1123.22 432.97 1119.99 435.33 1119.35
  Q 439.20 1118.31 442.50 1118.33
  Q 517.13 1118.66 591.76 1118.43
  C 598.82 1118.41 600.48 1112.53 600.46 1106.75
  Q 600.14 1024.38 600.16 942.35
  Q 600.16 940.01 602.51 940.00
  L 670.22 939.97
  A 1.02 1.02 0.0 0 1 671.24 940.99
  Q 671.41 990.09 671.21 1039.50
  C 671.20 1042.78 668.90 1045.49 665.51 1046.09
  C 661.83 1046.74 658.97 1047.09 655.76 1049.72
  C 644.44 1058.98 637.56 1070.84 637.80 1085.99
  C 638.16 1108.19 654.79 1126.05 676.57 1128.77
  C 681.07 1129.33 685.03 1128.86 689.24 1127.57
  C 706.82 1122.15 721.41 1107.56 722.01 1088.49
  Q 722.77 1063.99 704.26 1049.34
  C 701.36 1047.05 698.78 1046.34 695.24 1046.64
  A 1.88 1.87 87.5 0 1 693.21 1044.78
  L 693.00 941.98
  Q 693.00 939.95 695.02 939.96
  L 751.61 940.05
  Q 753.53 940.06 753.53 941.97
  Q 753.50 1031.55 753.41 1121.25
  Q 753.41 1124.77 750.76 1125.79
  Q 728.50 1134.39 722.68 1155.95
  C 718.47 1171.52 723.69 1184.63 734.03 1196.48
  C 742.54 1206.24 753.36 1208.01 765.26 1208.48
  Q 774.89 1208.86 783.27 1204.49
  C 785.21 1203.48 789.16 1201.80 790.99 1199.73
  Q 795.07 1195.10 801.95 1185.21
  C 811.42 1171.57 806.89 1150.87 796.66 1138.42
  C 792.22 1133.01 786.54 1130.15 780.33 1127.18
  C 777.98 1126.05 775.46 1124.24 775.46 1121.75
  Q 775.45 1031.74 775.49 941.55
  A 1.53 1.53 0.0 0 1 777.01 940.02
  L 834.23 939.97
  A 1.32 1.31 0.0 0 1 835.55 941.28
  Q 835.61 990.85 835.42 1040.00
  C 835.41 1044.26 833.23 1045.31 829.25 1046.18
  Q 822.33 1047.69 817.07 1052.52
  Q 803.13 1065.34 802.77 1083.49
  C 802.58 1092.89 804.33 1101.92 810.02 1109.26
  C 818.84 1120.64 833.37 1131.08 848.74 1128.65
  C 862.57 1126.47 876.09 1119.01 882.17 1105.91
  C 889.32 1090.50 888.18 1072.45 878.02 1058.81
  C 873.70 1053.02 867.32 1046.16 859.33 1046.52
  A 1.78 1.78 0.0 0 1 857.47 1044.75
  L 857.42 941.51
  A 1.39 1.39 0.0 0 1 858.77 940.12
  C 867.80 939.82 876.00 939.84 885.72 940.37
  Q 901.03 941.22 909.75 941.12
  C 933.92 940.85 958.94 932.04 975.43 913.92
  Q 979.37 909.59 983.09 905.06
  Q 986.61 900.76 992.25 900.76
  Q 1059.01 900.76 1125.69 900.79
  A 1.32 1.31 89.8 0 1 1127.00 902.10
  Q 1127.10 968.76 1126.90 1035.25
  C 1126.88 1041.82 1120.33 1043.16 1116.81 1045.82
  Q 1108.10 1052.41 1104.52 1062.74
  C 1102.26 1069.26 1100.44 1076.48 1101.37 1083.49
  C 1103.38 1098.79 1111.29 1111.46 1125.52 1117.93
  C 1139.45 1124.28 1153.08 1124.68 1165.74 1115.16
  C 1176.00 1107.44 1186.23 1096.22 1186.76 1082.51
  C 1187.58 1061.20 1174.62 1044.52 1154.54 1038.09
  C 1152.61 1037.47 1150.24 1036.20 1150.24 1034.25
  Q 1150.23 962.63 1149.80 891.00
  C 1149.74 880.34 1144.75 875.06 1134.00 875.13
  Q 1066.09 875.52 998.15 875.12
  A 0.66 0.62 -28.2 0 1 997.82 875.03
  Q 997.08 874.63 997.59 873.78
  C 998.73 871.91 999.53 870.24 999.66 867.93
  Q 1000.30 857.05 1003.20 842.76
  C 1004.34 837.17 1004.39 830.41 1002.76 824.44
  C 1000.97 817.88 999.99 812.30 999.98 806.00
  A 1.80 1.79 -0.2 0 1 1001.78 804.20
  L 1055.50 804.39
  A 0.81 0.80 84.8 0 1 1056.29 805.06
  Q 1057.37 811.52 1061.60 816.91
  Q 1073.68 832.32 1093.03 835.95
  C 1102.98 837.82 1114.69 832.50 1122.53 826.52
  Q 1141.42 812.12 1138.96 788.03
  Q 1137.64 775.18 1131.56 767.23
  C 1120.44 752.68 1097.38 745.75 1080.54 753.57
  C 1069.88 758.52 1057.19 768.86 1056.26 781.70
  A 0.62 0.62 0.0 0 1 1055.64 782.28
  Q 1025.64 782.49 996.50 782.78
  Q 994.93 782.80 994.35 781.43
  C 985.71 760.91 970.54 741.57 950.86 730.83
  Q 944.00 727.08 936.76 723.85
  A 1.12 1.12 0.0 0 1 936.22 723.34
  Z"
/>
<path fill="#0bec92" d="
  M 936.22 723.34
  A 1.12 1.12 0.0 0 0 936.76 723.85
  Q 944.00 727.08 950.86 730.83
  C 970.54 741.57 985.71 760.91 994.35 781.43
  Q 994.93 782.80 996.50 782.78
  Q 1025.64 782.49 1055.64 782.28
  A 0.62 0.62 0.0 0 0 1056.26 781.70
  C 1057.19 768.86 1069.88 758.52 1080.54 753.57
  C 1097.38 745.75 1120.44 752.68 1131.56 767.23
  Q 1137.64 775.18 1138.96 788.03
  Q 1141.42 812.12 1122.53 826.52
  C 1114.69 832.50 1102.98 837.82 1093.03 835.95
  Q 1073.68 832.32 1061.60 816.91
  Q 1057.37 811.52 1056.29 805.06
  A 0.81 0.80 84.8 0 0 1055.50 804.39
  L 1001.78 804.20
  A 1.80 1.79 -0.2 0 0 999.98 806.00
  C 999.99 812.30 1000.97 817.88 1002.76 824.44
  C 1004.39 830.41 1004.34 837.17 1003.20 842.76
  Q 1000.30 857.05 999.66 867.93
  C 999.53 870.24 998.73 871.91 997.59 873.78
  Q 997.08 874.63 997.82 875.03
  A 0.66 0.62 -28.2 0 0 998.15 875.12
  Q 1066.09 875.52 1134.00 875.13
  C 1144.75 875.06 1149.74 880.34 1149.80 891.00
  Q 1150.23 962.63 1150.24 1034.25
  C 1150.24 1036.20 1152.61 1037.47 1154.54 1038.09
  C 1174.62 1044.52 1187.58 1061.20 1186.76 1082.51
  C 1186.23 1096.22 1176.00 1107.44 1165.74 1115.16
  C 1153.08 1124.68 1139.45 1124.28 1125.52 1117.93
  C 1111.29 1111.46 1103.38 1098.79 1101.37 1083.49
  C 1100.44 1076.48 1102.26 1069.26 1104.52 1062.74
  Q 1108.10 1052.41 1116.81 1045.82
  C 1120.33 1043.16 1126.88 1041.82 1126.90 1035.25
  Q 1127.10 968.76 1127.00 902.10
  A 1.32 1.31 89.8 0 0 1125.69 900.79
  Q 1059.01 900.76 992.25 900.76
  Q 986.61 900.76 983.09 905.06
  Q 979.37 909.59 975.43 913.92
  C 958.94 932.04 933.92 940.85 909.75 941.12
  Q 901.03 941.22 885.72 940.37
  C 876.00 939.84 867.80 939.82 858.77 940.12
  A 1.39 1.39 0.0 0 0 857.42 941.51
  L 857.47 1044.75
  A 1.78 1.78 0.0 0 0 859.33 1046.52
  C 867.32 1046.16 873.70 1053.02 878.02 1058.81
  C 888.18 1072.45 889.32 1090.50 882.17 1105.91
  C 876.09 1119.01 862.57 1126.47 848.74 1128.65
  C 833.37 1131.08 818.84 1120.64 810.02 1109.26
  C 804.33 1101.92 802.58 1092.89 802.77 1083.49
  Q 803.13 1065.34 817.07 1052.52
  Q 822.33 1047.69 829.25 1046.18
  C 833.23 1045.31 835.41 1044.26 835.42 1040.00
  Q 835.61 990.85 835.55 941.28
  A 1.32 1.31 0.0 0 0 834.23 939.97
  L 777.01 940.02
  A 1.53 1.53 0.0 0 0 775.49 941.55
  Q 775.45 1031.74 775.46 1121.75
  C 775.46 1124.24 777.98 1126.05 780.33 1127.18
  C 786.54 1130.15 792.22 1133.01 796.66 1138.42
  C 806.89 1150.87 811.42 1171.57 801.95 1185.21
  Q 795.07 1195.10 790.99 1199.73
  C 789.16 1201.80 785.21 1203.48 783.27 1204.49
  Q 774.89 1208.86 765.26 1208.48
  C 753.36 1208.01 742.54 1206.24 734.03 1196.48
  C 723.69 1184.63 718.47 1171.52 722.68 1155.95
  Q 728.50 1134.39 750.76 1125.79
  Q 753.41 1124.77 753.41 1121.25
  Q 753.50 1031.55 753.53 941.97
  Q 753.53 940.06 751.61 940.05
  L 695.02 939.96
  Q 693.00 939.95 693.00 941.98
  L 693.21 1044.78
  A 1.88 1.87 87.5 0 0 695.24 1046.64
  C 698.78 1046.34 701.36 1047.05 704.26 1049.34
  Q 722.77 1063.99 722.01 1088.49
  C 721.41 1107.56 706.82 1122.15 689.24 1127.57
  C 685.03 1128.86 681.07 1129.33 676.57 1128.77
  C 654.79 1126.05 638.16 1108.19 637.80 1085.99
  C 637.56 1070.84 644.44 1058.98 655.76 1049.72
  C 658.97 1047.09 661.83 1046.74 665.51 1046.09
  C 668.90 1045.49 671.20 1042.78 671.21 1039.50
  Q 671.41 990.09 671.24 940.99
  A 1.02 1.02 0.0 0 0 670.22 939.97
  L 602.51 940.00
  Q 600.16 940.01 600.16 942.35
  Q 600.14 1024.38 600.46 1106.75
  C 600.48 1112.53 598.82 1118.41 591.76 1118.43
  Q 517.13 1118.66 442.50 1118.33
  Q 439.20 1118.31 435.33 1119.35
  C 432.97 1119.99 433.07 1123.22 432.56 1125.10
  Q 431.97 1127.31 430.54 1128.93
  C 420.89 1139.82 410.29 1150.25 394.59 1150.55
  C 385.31 1150.73 372.32 1144.81 365.73 1139.25
  C 356.48 1131.44 353.16 1120.23 350.36 1108.94
  C 349.32 1104.73 351.61 1100.59 352.71 1096.65
  C 358.58 1075.66 380.36 1059.25 402.74 1065.35
  C 415.59 1068.85 426.21 1075.87 431.65 1087.84
  C 433.35 1091.57 434.07 1096.54 439.46 1096.54
  Q 508.13 1096.52 576.59 1096.50
  Q 578.44 1096.50 578.44 1094.65
  L 578.50 941.73
  A 1.80 1.79 89.4 0 0 576.67 939.93
  Q 569.96 940.10 563.00 940.16
  C 539.50 940.39 515.71 930.09 497.51 917.51
  C 495.07 915.83 491.93 915.04 488.68 915.03
  Q 440.32 914.86 391.64 914.87
  A 1.41 1.40 8.8 0 0 390.30 915.85
  C 383.19 938.58 361.26 956.58 336.42 949.01
  C 325.86 945.80 308.93 934.51 307.27 922.50
  Q 306.30 915.51 304.22 908.76
  Q 304.06 908.22 304.41 906.79
  C 306.55 898.03 307.29 888.43 313.25 881.36
  C 321.88 871.11 339.71 862.59 353.23 865.62
  C 367.49 868.82 381.22 878.14 387.19 891.89
  A 1.73 1.72 78.3 0 0 388.77 892.93
  L 466.49 893.00
  A 0.79 0.79 0.0 0 0 467.14 891.75
  C 460.90 882.88 454.27 874.29 450.16 863.86
  Q 445.77 852.72 441.48 835.74
  Q 440.70 832.68 437.00 832.68
  Q 374.38 832.63 311.75 832.56
  C 309.30 832.56 308.35 833.49 307.35 835.73
  Q 303.06 845.36 293.62 852.86
  C 285.88 859.02 274.49 864.61 264.80 864.01
  C 255.69 863.46 246.41 858.59 239.26 852.76
  C 228.25 843.80 221.65 831.56 223.43 817.34
  C 224.45 809.18 227.75 799.76 233.31 793.57
  C 240.25 785.85 252.45 779.17 263.24 778.53
  C 281.81 777.43 298.59 788.94 306.96 805.28
  Q 307.94 807.18 311.00 807.18
  Q 374.49 807.22 437.53 807.35
  A 1.53 1.53 0.0 0 0 439.06 805.78
  C 438.74 795.37 438.55 783.40 441.13 773.28
  Q 444.35 760.62 448.51 748.41
  A 0.49 0.49 0.0 0 0 448.05 747.76
  Q 420.87 747.64 393.75 747.83
  C 387.78 747.87 386.18 754.74 383.76 758.49
  C 370.05 779.71 341.87 787.59 321.38 770.39
  C 318.62 768.07 307.56 757.90 307.32 753.29
  Q 306.89 744.92 304.03 737.23
  A 1.67 1.64 -46.0 0 1 304.02 736.10
  Q 305.89 730.58 307.01 724.80
  Q 308.26 718.33 309.54 715.78
  C 315.46 703.97 332.70 694.52 345.80 694.01
  Q 351.01 693.81 357.49 695.85
  C 371.69 700.32 382.41 709.01 388.03 722.98
  C 388.71 724.67 390.39 725.21 392.24 725.21
  Q 440.56 725.34 455.25 725.23
  C 461.53 725.18 467.84 716.04 471.36 711.67
  C 482.70 697.61 501.30 686.37 517.92 679.16
  C 530.56 673.68 544.99 671.40 558.41 669.01
  C 564.02 668.01 569.37 667.94 574.94 668.00
  A 0.92 0.92 0.0 0 0 575.87 666.97
  L 574.48 655.53
  Q 574.32 654.24 573.03 654.24
  Q 450.21 654.25 327.65 654.24
  C 321.90 654.24 317.94 652.45 317.96 646.25
  Q 318.12 572.75 317.52 499.25
  Q 317.49 495.61 317.27 492.19
  A 1.92 1.92 0.0 0 0 315.15 490.41
  Q 311.05 490.86 307.63 488.09
  C 299.13 481.22 291.27 474.63 287.96 465.28
  C 277.80 436.56 298.50 411.09 326.76 407.45
  C 330.68 406.95 334.04 408.13 338.65 409.58
  C 357.88 415.62 368.75 428.03 371.16 448.25
  C 372.95 463.21 357.97 488.85 341.71 490.40
  Q 339.81 490.58 339.81 492.48
  L 339.77 631.65
  Q 339.77 632.28 340.40 632.28
  L 572.31 632.49
  Q 574.87 632.50 574.87 629.94
  L 574.76 477.51
  A 1.34 1.34 0.0 0 0 573.36 476.17
  C 559.20 476.77 549.42 454.45 546.77 443.75
  C 542.79 427.64 556.96 407.19 570.88 399.84
  C 579.42 395.33 591.73 394.98 601.00 396.98
  C 621.18 401.33 636.16 426.67 631.67 446.43
  C 627.81 463.41 616.40 476.51 598.86 479.52
  C 597.49 479.76 596.78 481.67 596.78 483.08
  Q 596.75 557.17 596.73 630.99
  A 0.91 0.91 0.0 0 0 598.23 631.68
  C 602.53 627.95 606.15 623.47 610.32 619.57
  C 617.34 613.02 623.12 606.77 629.07 601.07
  C 637.21 593.26 647.76 588.15 656.63 581.90
  Q 658.69 580.45 658.70 577.74
  Q 658.98 490.48 659.02 403.53
  A 1.70 1.70 0.0 0 0 658.02 401.98
  C 636.86 392.40 624.07 374.21 629.21 350.30
  Q 632.51 334.93 647.17 325.16
  Q 664.65 313.50 685.30 320.44
  Q 690.61 322.23 693.86 324.72
  Q 720.24 344.94 709.29 377.45
  C 705.02 390.13 695.71 396.64 683.61 401.16
  A 1.71 1.70 79.9 0 0 682.50 402.76
  Q 682.49 484.09 682.58 565.50
  C 682.58 568.56 684.68 569.07 687.21 568.20
  Q 698.50 564.33 710.23 562.35
  C 720.17 560.67 731.05 560.66 741.50 560.82
  A 1.23 1.23 0.0 0 0 742.75 559.59
  Q 742.75 521.37 742.72 483.00
  Q 742.71 478.70 738.19 477.06
  C 725.80 472.57 718.12 463.16 713.80 450.73
  C 711.77 444.91 710.22 439.65 711.03 433.64
  C 712.72 421.06 724.41 406.25 735.22 399.95
  C 743.33 395.23 754.83 395.36 763.75 396.31
  C 778.72 397.92 791.15 412.43 795.35 426.24
  C 802.15 448.58 789.73 471.44 767.33 478.56
  C 765.58 479.12 764.80 481.39 764.80 483.26
  Q 764.77 521.37 764.77 559.21
  A 1.55 1.53 5.4 0 0 766.03 560.72
  Q 803.74 567.75 833.49 591.81
  A 1.07 1.06 -68.9 0 0 835.22 591.04
  Q 835.32 589.23 835.32 587.00
  Q 835.44 494.62 835.60 402.25
  C 835.62 393.42 840.09 386.12 849.75 386.13
  Q 923.64 386.19 997.09 386.00
  A 1.74 1.73 -81.4 0 0 998.73 384.78
  C 1003.09 370.69 1012.66 358.41 1027.72 354.49
  C 1047.85 349.26 1072.45 356.19 1079.96 377.48
  C 1089.33 404.07 1075.35 435.33 1045.01 436.60
  C 1036.37 436.97 1028.53 437.16 1021.42 432.73
  Q 1008.81 424.89 1001.47 411.78
  Q 1000.54 410.13 997.00 410.11
  Q 929.48 409.57 862.00 409.51
  A 1.97 1.97 0.0 0 0 860.03 411.48
  L 860.01 615.78
  A 2.24 2.24 0.0 0 0 862.25 618.02
  Q 956.29 617.97 1049.75 617.93
  Q 1051.62 617.93 1052.17 616.29
  C 1059.30 595.11 1081.07 581.24 1103.00 586.51
  Q 1108.57 587.85 1117.17 591.81
  Q 1124.01 594.97 1129.32 603.65
  C 1134.60 612.27 1136.83 622.35 1136.31 632.31
  C 1135.32 650.95 1121.43 663.11 1104.74 669.47
  C 1082.39 677.97 1061.70 660.78 1052.84 641.70
  Q 1052.01 639.92 1049.50 639.92
  Q 963.68 640.01 877.87 640.01
  C 875.65 640.01 874.14 641.28 875.28 643.51
  Q 889.06 670.47 897.64 699.45
  A 1.11 1.10 -8.0 0 0 898.70 700.24
  Q 1013.88 700.28 1129.25 700.20
  Q 1135.74 700.19 1138.61 694.40
  C 1147.72 676.03 1167.87 665.49 1188.19 671.36
  Q 1195.91 673.60 1198.87 674.96
  C 1210.58 680.37 1217.17 691.67 1220.25 704.12
  C 1225.35 724.71 1212.55 740.45 1196.20 750.97
  C 1193.64 752.61 1189.17 753.74 1185.80 754.20
  C 1160.65 757.64 1147.48 744.84 1135.60 724.69
  Q 1134.20 722.33 1130.62 722.32
  Q 1034.07 722.01 937.51 722.02
  Q 935.58 722.02 936.22 723.34
  Z
  M 689.76 360.09
  A 19.54 19.54 0.0 0 0 670.22 340.55
  A 19.54 19.54 0.0 0 0 650.68 360.09
  A 19.54 19.54 0.0 0 0 670.22 379.63
  A 19.54 19.54 0.0 0 0 689.76 360.09
  Z
  M 1060.29 395.06
  A 19.60 19.60 0.0 0 0 1040.69 375.46
  A 19.60 19.60 0.0 0 0 1021.09 395.06
  A 19.60 19.60 0.0 0 0 1040.69 414.66
  A 19.60 19.60 0.0 0 0 1060.29 395.06
  Z
  M 609.46 437.91
  A 19.66 19.66 0.0 0 0 589.80 418.25
  A 19.66 19.66 0.0 0 0 570.14 437.91
  A 19.66 19.66 0.0 0 0 589.80 457.57
  A 19.66 19.66 0.0 0 0 609.46 437.91
  Z
  M 774.34 437.95
  A 19.68 19.68 0.0 0 0 754.66 418.27
  A 19.68 19.68 0.0 0 0 734.98 437.95
  A 19.68 19.68 0.0 0 0 754.66 457.63
  A 19.68 19.68 0.0 0 0 774.34 437.95
  Z
  M 342.1684 437.3184
  A 19.66 19.37 -44.1 0 0 314.5702 437.0899
  A 19.66 19.37 -44.1 0 0 313.9316 464.6816
  A 19.66 19.37 -44.1 0 0 341.5298 464.9101
  A 19.66 19.37 -44.1 0 0 342.1684 437.3184
  Z
  M 815.97 607.48
  C 797.85 591.63 776.17 586.56 752.92 583.64
  Q 744.68 582.61 738.75 583.03
  Q 721.20 584.26 701.13 589.00
  C 666.41 597.20 635.67 621.38 614.58 649.60
  C 606.80 660.01 598.31 674.11 590.27 686.31
  Q 588.16 689.52 585.01 689.69
  C 559.16 691.05 532.15 695.97 510.78 708.78
  C 453.31 743.24 443.94 832.94 489.36 880.88
  Q 506.79 899.27 529.63 908.50
  Q 534.03 910.28 538.43 912.12
  C 549.70 916.85 560.53 919.15 572.82 918.86
  Q 579.61 918.69 579.69 918.69
  Q 737.22 918.12 894.75 918.23
  C 916.87 918.24 935.93 915.74 954.35 903.30
  C 958.21 900.70 961.51 897.48 963.85 893.78
  C 970.45 883.34 976.87 868.63 977.98 855.75
  Q 979.54 837.61 978.09 817.78
  C 976.72 798.98 969.98 782.56 959.86 766.87
  Q 958.30 764.44 955.95 762.79
  C 942.34 753.23 931.39 744.74 913.76 740.68
  C 905.40 738.75 890.32 742.88 882.74 735.28
  C 878.37 730.89 878.99 725.80 878.67 720.36
  Q 878.44 716.46 877.58 712.87
  C 870.83 684.82 859.67 658.41 842.83 634.92
  C 840.43 631.57 836.00 624.79 832.75 622.00
  Q 824.32 614.78 815.97 607.48
  Z
  M 1087.9740 647.0053
  A 19.79 19.11 107.0 0 0 1112.0350 633.6672
  A 19.79 19.11 107.0 0 0 1099.5460 609.1547
  A 19.79 19.11 107.0 0 0 1075.4850 622.4928
  A 19.79 19.11 107.0 0 0 1087.9740 647.0053
  Z
  M 1176.9549 732.4802
  A 19.90 19.01 91.8 0 0 1196.5806 713.1871
  A 19.90 19.01 91.8 0 0 1178.2051 692.6998
  A 19.90 19.01 91.8 0 0 1158.5794 711.9929
  A 19.90 19.01 91.8 0 0 1176.9549 732.4802
  Z
  M 352.5359 756.6187
  A 20.07 18.84 74.7 0 0 365.4123 732.2886
  A 20.07 18.84 74.7 0 0 341.9441 717.9013
  A 20.07 18.84 74.7 0 0 329.0677 742.2314
  A 20.07 18.84 74.7 0 0 352.5359 756.6187
  Z
  M 1095.4547 812.5135
  A 19.58 18.89 93.5 0 0 1115.5048 794.1232
  A 19.58 18.89 93.5 0 0 1097.8453 773.4265
  A 19.58 18.89 93.5 0 0 1077.7952 791.8168
  A 19.58 18.89 93.5 0 0 1095.4547 812.5135
  Z
  M 261.4040 840.0232
  A 19.81 19.20 104.1 0 0 284.8515 825.4874
  A 19.81 19.20 104.1 0 0 271.0560 801.5968
  A 19.81 19.20 104.1 0 0 247.6085 816.1326
  A 19.81 19.20 104.1 0 0 261.4040 840.0232
  Z
  M 351.8996 927.7885
  A 19.96 18.94 76.5 0 0 365.6567 903.9585
  A 19.96 18.94 76.5 0 0 342.5804 888.9715
  A 19.96 18.94 76.5 0 0 328.8233 912.8015
  A 19.96 18.94 76.5 0 0 351.8996 927.7885
  Z
  M 1163.56 1079.42
  A 19.66 19.66 0.0 0 0 1143.90 1059.76
  A 19.66 19.66 0.0 0 0 1124.24 1079.42
  A 19.66 19.66 0.0 0 0 1143.90 1099.08
  A 19.66 19.66 0.0 0 0 1163.56 1079.42
  Z
  M 699.6002 1080.7944
  A 19.90 19.43 -13.5 0 0 675.7142 1066.5469
  A 19.90 19.43 -13.5 0 0 660.8998 1090.0856
  A 19.90 19.43 -13.5 0 0 684.7858 1104.3331
  A 19.90 19.43 -13.5 0 0 699.6002 1080.7944
  Z
  M 864.5940 1085.8172
  A 19.94 19.45 1.4 0 0 845.1352 1065.8858
  A 19.94 19.45 1.4 0 0 824.7260 1084.8428
  A 19.94 19.45 1.4 0 0 844.1848 1104.7742
  A 19.94 19.45 1.4 0 0 864.5940 1085.8172
  Z
  M 413.52 1107.09
  A 19.54 19.54 0.0 0 0 393.98 1087.55
  A 19.54 19.54 0.0 0 0 374.44 1107.09
  A 19.54 19.54 0.0 0 0 393.98 1126.63
  A 19.54 19.54 0.0 0 0 413.52 1107.09
  Z
  M 783.34 1166.41
  A 19.64 19.64 0.0 0 0 763.70 1146.77
  A 19.64 19.64 0.0 0 0 744.06 1166.41
  A 19.64 19.64 0.0 0 0 763.70 1186.05
  A 19.64 19.64 0.0 0 0 783.34 1166.41
  Z"
/>
<circle fill="#16292f" cx="670.22" cy="360.09" r="19.54"/>
<circle fill="#16292f" cx="1040.69" cy="395.06" r="19.60"/>
<circle fill="#16292f" cx="589.80" cy="437.91" r="19.66"/>
<circle fill="#16292f" cx="754.66" cy="437.95" r="19.68"/>
<ellipse fill="#16292f" cx="0.00" cy="0.00" transform="translate(328.05,451.00) rotate(-44.1)" rx="19.66" ry="19.37"/>
<path fill="#202430" d="
  M 752.92 583.64
  C 776.17 586.56 797.85 591.63 815.97 607.48
  Q 824.32 614.78 832.75 622.00
  C 836.00 624.79 840.43 631.57 842.83 634.92
  C 859.67 658.41 870.83 684.82 877.58 712.87
  Q 878.44 716.46 878.67 720.36
  C 878.99 725.80 878.37 730.89 882.74 735.28
  C 890.32 742.88 905.40 738.75 913.76 740.68
  C 931.39 744.74 942.34 753.23 955.95 762.79
  Q 958.30 764.44 959.86 766.87
  C 969.98 782.56 976.72 798.98 978.09 817.78
  Q 979.54 837.61 977.98 855.75
  C 976.87 868.63 970.45 883.34 963.85 893.78
  C 961.51 897.48 958.21 900.70 954.35 903.30
  C 935.93 915.74 916.87 918.24 894.75 918.23
  Q 737.22 918.12 579.69 918.69
  Q 579.61 918.69 572.82 918.86
  C 560.53 919.15 549.70 916.85 538.43 912.12
  Q 534.03 910.28 529.63 908.50
  Q 506.79 899.27 489.36 880.88
  C 443.94 832.94 453.31 743.24 510.78 708.78
  C 532.15 695.97 559.16 691.05 585.01 689.69
  Q 588.16 689.52 590.27 686.31
  C 598.31 674.11 606.80 660.01 614.58 649.60
  C 635.67 621.38 666.41 597.20 701.13 589.00
  Q 721.20 584.26 738.75 583.03
  Q 744.68 582.61 752.92 583.64
  Z"
/>
<ellipse fill="#16292f" cx="0.00" cy="0.00" transform="translate(1093.76,628.08) rotate(107.0)" rx="19.79" ry="19.11"/>
<ellipse fill="#16292f" cx="0.00" cy="0.00" transform="translate(1177.58,712.59) rotate(91.8)" rx="19.90" ry="19.01"/>
<ellipse fill="#16292f" cx="0.00" cy="0.00" transform="translate(347.24,737.26) rotate(74.7)" rx="20.07" ry="18.84"/>
<ellipse fill="#16292f" cx="0.00" cy="0.00" transform="translate(1096.65,792.97) rotate(93.5)" rx="19.58" ry="18.89"/>
<ellipse fill="#16292f" cx="0.00" cy="0.00" transform="translate(266.23,820.81) rotate(104.1)" rx="19.81" ry="19.20"/>
<ellipse fill="#16292f" cx="0.00" cy="0.00" transform="translate(347.24,908.38) rotate(76.5)" rx="19.96" ry="18.94"/>
<circle fill="#16292f" cx="1143.90" cy="1079.42" r="19.66"/>
<ellipse fill="#16292f" cx="0.00" cy="0.00" transform="translate(680.25,1085.44) rotate(-13.5)" rx="19.90" ry="19.43"/>
<ellipse fill="#16292f" cx="0.00" cy="0.00" transform="translate(844.66,1085.33) rotate(1.4)" rx="19.94" ry="19.45"/>
<circle fill="#16292f" cx="393.98" cy="1107.09" r="19.54"/>
<circle fill="#16292f" cx="763.70" cy="1166.41" r="19.64"/>
</svg>
